STARTFONT 2.1
FONT -FontForge-Syncopate-Book-R-Normal--28-280-72-72-P-210-ISO10646-1
SIZE 28 72 72
FONTBOUNDINGBOX 52 32 -6 -7
COMMENT "Generated by fontforge, http://fontforge.sourceforge.net"
COMMENT "Copyright (c) 2010 by Brian J. Bonislawsky DBA Astigmatic (AOETI). All rights reserved. Available under the Apache 2.0 licence.http://www.apache.org/licenses/LICENSE-2.0.html"
STARTPROPERTIES 39
FOUNDRY "FontForge"
FAMILY_NAME "Syncopate"
WEIGHT_NAME "Book"
SLANT "R"
SETWIDTH_NAME "Normal"
ADD_STYLE_NAME ""
PIXEL_SIZE 28
POINT_SIZE 280
RESOLUTION_X 72
RESOLUTION_Y 72
SPACING "P"
AVERAGE_WIDTH 210
CHARSET_REGISTRY "ISO10646"
CHARSET_ENCODING "1"
FONTNAME_REGISTRY ""
CHARSET_COLLECTIONS "ISO8859-2 ISO8859-9 ISO8859-4 ISO10646-1"
FONT_NAME "Syncopate-Regular"
FACE_NAME "Syncopate Regular"
COPYRIGHT "Copyright (c) 2010 by Brian J. Bonislawsky DBA Astigmatic (AOETI). All rights reserved. Available under the Apache 2.0 licence.http://www.apache.org/licenses/LICENSE-2.0.html"
FONT_VERSION "001.001"
FONT_ASCENT 22
FONT_DESCENT 6
UNDERLINE_POSITION -3
UNDERLINE_THICKNESS 2
X_HEIGHT 18
CAP_HEIGHT 18
RAW_ASCENT 799
RAW_DESCENT 200
NORM_SPACE 11
RELATIVE_WEIGHT 40
RELATIVE_SETWIDTH 70
SUPERSCRIPT_X 0
SUPERSCRIPT_Y 8
SUPERSCRIPT_SIZE 5
SUBSCRIPT_X 0
SUBSCRIPT_Y 8
SUBSCRIPT_SIZE 5
AVG_LOWERCASE_WIDTH 239
AVG_UPPERCASE_WIDTH 229
ENDPROPERTIES
CHARS 370
STARTCHAR space
ENCODING 32
SWIDTH 375 0
DWIDTH 11 0
BBX 1 1 0 0
BITMAP
00
ENDCHAR
STARTCHAR exclam
ENCODING 33
SWIDTH 274 0
DWIDTH 8 0
BBX 2 19 3 0
BITMAP
C0
C0
C0
C0
C0
C0
C0
C0
C0
C0
C0
C0
C0
C0
00
00
C0
C0
C0
ENDCHAR
STARTCHAR quotedbl
ENCODING 34
SWIDTH 290 0
DWIDTH 8 0
BBX 6 6 1 13
BITMAP
CC
CC
CC
CC
CC
CC
ENDCHAR
STARTCHAR numbersign
ENCODING 35
SWIDTH 701 0
DWIDTH 20 0
BBX 16 19 2 0
BITMAP
0204
0204
0204
0408
0408
7FFF
0408
0810
0810
0810
0810
0810
FFFE
1020
1020
1020
3060
2040
2040
ENDCHAR
STARTCHAR dollar
ENCODING 36
SWIDTH 767 0
DWIDTH 21 0
BBX 17 22 2 -1
BITMAP
008000
008000
0FF800
3FFE00
708600
E08000
C08000
C08000
E08000
788000
1F8000
07F000
00FE00
008F00
008380
008180
008180
008380
C08700
FFFE00
3FF800
008000
ENDCHAR
STARTCHAR percent
ENCODING 37
SWIDTH 992 0
DWIDTH 28 0
BBX 24 19 1 0
BITMAP
1F0030
71C060
60C0C0
C06180
C06180
C06300
C06600
60CC00
318C00
1F18F8
00338E
003306
006603
00C603
018603
018603
030306
06038C
0C00F8
ENDCHAR
STARTCHAR ampersand
ENCODING 38
SWIDTH 926 0
DWIDTH 26 0
BBX 23 19 2 0
BITMAP
03F800
0FFC00
1E0E00
180600
180600
180C00
0C3800
06E000
078000
1F8000
38C018
606018
C03830
C01C30
C00E70
E003E0
7803E0
3FFF70
0FF81E
ENDCHAR
STARTCHAR quotesingle
ENCODING 39
SWIDTH 140 0
DWIDTH 4 0
BBX 2 6 1 13
BITMAP
C0
C0
C0
C0
C0
C0
ENDCHAR
STARTCHAR parenleft
ENCODING 40
SWIDTH 420 0
DWIDTH 12 0
BBX 7 23 2 -2
BITMAP
04
0E
1C
38
30
60
60
60
C0
C0
C0
C0
C0
C0
C0
60
60
60
30
38
1C
0E
04
ENDCHAR
STARTCHAR parenright
ENCODING 41
SWIDTH 420 0
DWIDTH 12 0
BBX 7 23 3 -2
BITMAP
40
E0
70
38
18
0C
0C
0C
06
06
06
06
06
06
06
0C
0C
0C
18
38
70
E0
40
ENDCHAR
STARTCHAR asterisk
ENCODING 42
SWIDTH 503 0
DWIDTH 14 0
BBX 12 11 1 8
BITMAP
0600
0600
C630
76E0
1F80
0600
1F80
7660
C630
0600
0600
ENDCHAR
STARTCHAR plus
ENCODING 43
SWIDTH 634 0
DWIDTH 18 0
BBX 14 14 2 3
BITMAP
0300
0300
0300
0300
0300
0300
FFFC
FFFC
0300
0300
0300
0300
0300
0300
ENDCHAR
STARTCHAR comma
ENCODING 44
SWIDTH 185 0
DWIDTH 5 0
BBX 3 6 1 -3
BITMAP
60
60
40
C0
C0
C0
ENDCHAR
STARTCHAR hyphen
ENCODING 45
SWIDTH 540 0
DWIDTH 15 0
BBX 11 2 2 9
BITMAP
FFE0
FFE0
ENDCHAR
STARTCHAR period
ENCODING 46
SWIDTH 185 0
DWIDTH 5 0
BBX 2 3 1 0
BITMAP
C0
C0
C0
ENDCHAR
STARTCHAR slash
ENCODING 47
SWIDTH 500 0
DWIDTH 14 0
BBX 11 21 2 -1
BITMAP
0060
00C0
00C0
01C0
0180
0180
0300
0300
0600
0600
0E00
0C00
0C00
1800
1800
3000
3000
7000
6000
6000
C000
ENDCHAR
STARTCHAR zero
ENCODING 48
SWIDTH 833 0
DWIDTH 23 0
BBX 20 19 2 0
BITMAP
01F800
0FFF00
1E0780
3801C0
7000E0
600060
E00070
C00030
C00030
C00030
C00030
C00030
E00070
600060
7000E0
3801C0
1E0780
0FFF00
01F800
ENDCHAR
STARTCHAR one
ENCODING 49
SWIDTH 339 0
DWIDTH 10 0
BBX 6 19 0 0
BITMAP
3C
FC
CC
0C
0C
0C
0C
0C
0C
0C
0C
0C
0C
0C
0C
0C
0C
0C
0C
ENDCHAR
STARTCHAR two
ENCODING 50
SWIDTH 728 0
DWIDTH 20 0
BBX 17 19 1 0
BITMAP
0FF000
7FFC00
F01F00
800300
000180
000180
000180
000180
000300
000600
000C00
001800
007000
01C000
038000
0E0000
380000
FFFF80
FFFF80
ENDCHAR
STARTCHAR three
ENCODING 51
SWIDTH 726 0
DWIDTH 20 0
BBX 17 19 1 0
BITMAP
3FF000
FFFC00
C01E00
000700
000300
000300
000600
001E00
07F800
07F800
001E00
000300
000180
000180
000180
000380
C00F00
FFFE00
3FF000
ENDCHAR
STARTCHAR four
ENCODING 52
SWIDTH 769 0
DWIDTH 22 0
BBX 20 19 1 0
BITMAP
001E00
003E00
007600
00E600
01C600
038600
070600
0E0600
1C0600
380600
700600
E00600
FFFFF0
FFFFF0
000600
000600
000600
000600
000600
ENDCHAR
STARTCHAR five
ENCODING 53
SWIDTH 738 0
DWIDTH 21 0
BBX 18 19 1 0
BITMAP
7FFF00
7FFF00
600000
600000
600000
600000
600000
7FF800
7FFE00
000F80
000180
0000C0
0000C0
0000C0
0000C0
000180
C00F80
FFFE00
3FF800
ENDCHAR
STARTCHAR six
ENCODING 54
SWIDTH 772 0
DWIDTH 22 0
BBX 19 19 2 0
BITMAP
01FE00
0FFF80
1E0180
380000
700000
600000
E00000
C1FC00
CFFF80
FE03C0
F000C0
C00060
C00060
600060
600060
3000C0
3C03C0
0FFF00
03FC00
ENDCHAR
STARTCHAR seven
ENCODING 55
SWIDTH 669 0
DWIDTH 19 0
BBX 18 19 0 0
BITMAP
FFFFC0
FFFFC0
000180
000380
000300
000600
000E00
000C00
001800
003800
003000
006000
006000
00C000
01C000
018000
030000
070000
0E0000
ENDCHAR
STARTCHAR eight
ENCODING 56
SWIDTH 793 0
DWIDTH 22 0
BBX 19 19 2 0
BITMAP
07FC00
1FFF00
380380
7001C0
6000C0
6000C0
300180
1E0F00
07FC00
07FE00
3E0F80
7001C0
E000E0
C00060
C00060
E000E0
7803C0
3FFF80
07FC00
ENDCHAR
STARTCHAR nine
ENCODING 57
SWIDTH 776 0
DWIDTH 22 0
BBX 19 19 1 0
BITMAP
07F800
1FFE00
780700
600180
C000C0
C000C0
C00060
C000E0
6001E0
780760
3FFE60
07F060
0000E0
0000C0
0001C0
000380
300F00
3FFE00
0FF000
ENDCHAR
STARTCHAR colon
ENCODING 58
SWIDTH 245 0
DWIDTH 7 0
BBX 2 13 2 0
BITMAP
C0
C0
C0
00
00
00
00
00
00
00
C0
C0
C0
ENDCHAR
STARTCHAR semicolon
ENCODING 59
SWIDTH 234 0
DWIDTH 7 0
BBX 3 16 1 -3
BITMAP
60
60
60
00
00
00
00
00
00
00
60
60
40
C0
C0
C0
ENDCHAR
STARTCHAR less
ENCODING 60
SWIDTH 634 0
DWIDTH 18 0
BBX 13 13 2 3
BITMAP
0008
0038
00F0
0780
1E00
7000
C000
7000
1E00
0780
00F0
0038
0008
ENDCHAR
STARTCHAR equal
ENCODING 61
SWIDTH 634 0
DWIDTH 18 0
BBX 13 7 2 6
BITMAP
FFF8
FFF8
0000
0000
0000
FFF8
FFF8
ENDCHAR
STARTCHAR greater
ENCODING 62
SWIDTH 634 0
DWIDTH 18 0
BBX 13 13 2 3
BITMAP
8000
E000
7800
0F00
03C0
0070
0018
0070
03C0
0F00
7800
E000
8000
ENDCHAR
STARTCHAR question
ENCODING 63
SWIDTH 568 0
DWIDTH 16 0
BBX 12 19 2 0
BITMAP
7F80
FFC0
80E0
0070
0030
0030
0030
0060
01C0
0F80
1C00
1800
1800
0000
0000
0000
1800
1800
1800
ENDCHAR
STARTCHAR at
ENCODING 64
SWIDTH 1016 0
DWIDTH 28 0
BBX 24 20 2 0
BITMAP
007F80
03FFF0
078078
1E001C
38000E
303F86
60C383
618183
C30183
C30183
C30383
C30306
C30306
E1878C
60F8F0
700000
380000
1F0060
07FFE0
00FF00
ENDCHAR
STARTCHAR A
ENCODING 65
SWIDTH 812 0
DWIDTH 23 0
BBX 21 19 1 0
BITMAP
007000
007000
00D800
00D800
018C00
018C00
030600
030600
060300
060300
0C0180
0C0180
1FFFC0
3FFFC0
300060
700070
600030
E00038
C00018
ENDCHAR
STARTCHAR B
ENCODING 66
SWIDTH 836 0
DWIDTH 23 0
BBX 19 19 3 0
BITMAP
FFFE00
FFFF80
C00380
C000C0
C000C0
C000C0
C000C0
C00380
FFFF00
FFFF80
C001C0
C000E0
C00060
C00060
C00060
C000E0
C001C0
FFFF80
FFFF00
ENDCHAR
STARTCHAR C
ENCODING 67
SWIDTH 869 0
DWIDTH 24 0
BBX 21 19 2 0
BITMAP
00FF80
07FFF0
1F0078
380008
700000
600000
E00000
C00000
C00000
C00000
C00000
C00000
E00000
600000
700000
380008
1F0078
07FFF0
00FF80
ENDCHAR
STARTCHAR D
ENCODING 68
SWIDTH 910 0
DWIDTH 25 0
BBX 21 19 3 0
BITMAP
FFFE00
FFFF80
C003C0
C000E0
C00070
C00030
C00018
C00018
C00018
C00018
C00018
C00018
C00018
C00030
C00070
C000E0
C003C0
FFFF80
FFFE00
ENDCHAR
STARTCHAR E
ENCODING 69
SWIDTH 754 0
DWIDTH 21 0
BBX 16 19 3 0
BITMAP
FFFF
FFFF
C000
C000
C000
C000
C000
C000
FFFE
FFFE
C000
C000
C000
C000
C000
C000
C000
FFFF
FFFF
ENDCHAR
STARTCHAR F
ENCODING 70
SWIDTH 687 0
DWIDTH 19 0
BBX 15 19 3 0
BITMAP
FFFE
FFFE
C000
C000
C000
C000
C000
C000
FFFC
FFFC
C000
C000
C000
C000
C000
C000
C000
C000
C000
ENDCHAR
STARTCHAR G
ENCODING 71
SWIDTH 910 0
DWIDTH 25 0
BBX 21 19 2 0
BITMAP
00FF80
07FFF0
1F0078
3C0008
700000
600000
E00000
C00000
C00000
C00000
C00FF8
C00FF8
E00018
600018
700018
3C0018
1F0038
07FFF8
00FFC0
ENDCHAR
STARTCHAR H
ENCODING 72
SWIDTH 949 0
DWIDTH 27 0
BBX 20 19 3 0
BITMAP
C00030
C00030
C00030
C00030
C00030
C00030
C00030
C00030
FFFFF0
FFFFF0
C00030
C00030
C00030
C00030
C00030
C00030
C00030
C00030
C00030
ENDCHAR
STARTCHAR I
ENCODING 73
SWIDTH 287 0
DWIDTH 8 0
BBX 2 19 3 0
BITMAP
C0
C0
C0
C0
C0
C0
C0
C0
C0
C0
C0
C0
C0
C0
C0
C0
C0
C0
C0
ENDCHAR
STARTCHAR J
ENCODING 74
SWIDTH 590 0
DWIDTH 17 0
BBX 13 19 0 0
BITMAP
0018
0018
0018
0018
0018
0018
0018
0018
0018
0018
0018
0018
0018
0018
0018
0030
C0F0
FFE0
3F80
ENDCHAR
STARTCHAR K
ENCODING 75
SWIDTH 806 0
DWIDTH 23 0
BBX 19 19 3 0
BITMAP
C001E0
C00700
C00E00
C03800
C07000
C1C000
C38000
CE0000
DC0000
F80000
CE0000
C70000
C1C000
C0E000
C07800
C01C00
C00F00
C00380
C001E0
ENDCHAR
STARTCHAR L
ENCODING 76
SWIDTH 701 0
DWIDTH 20 0
BBX 15 19 3 0
BITMAP
C000
C000
C000
C000
C000
C000
C000
C000
C000
C000
C000
C000
C000
C000
C000
C000
C000
FFFE
FFFE
ENDCHAR
STARTCHAR M
ENCODING 77
SWIDTH 1139 0
DWIDTH 32 0
BBX 26 19 3 0
BITMAP
C00000C0
E00001C0
F00003C0
F00003C0
D80006C0
CC000CC0
CC000CC0
C60018C0
C30038C0
C30030C0
C18060C0
C1C060C0
C0C0C0C0
C06180C0
C06180C0
C03300C0
C01E00C0
C01E00C0
C00C00C0
ENDCHAR
STARTCHAR N
ENCODING 78
SWIDTH 936 0
DWIDTH 26 0
BBX 20 19 3 0
BITMAP
E00030
F00030
F80030
DC0030
CC0030
C60030
C30030
C18030
C0C030
C06030
C03030
C01830
C00C30
C00630
C00730
C003B0
C001F0
C000F0
C00070
ENDCHAR
STARTCHAR O
ENCODING 79
SWIDTH 983 0
DWIDTH 28 0
BBX 24 19 2 0
BITMAP
00FF80
07FFE0
1F00F8
38001C
70000E
600006
E00007
C00003
C00003
C00003
C00003
C00003
E00007
600006
70000E
38001C
1F00F8
07FFE0
01FF80
ENDCHAR
STARTCHAR P
ENCODING 80
SWIDTH 818 0
DWIDTH 23 0
BBX 18 19 3 0
BITMAP
FFFC00
FFFF00
C00380
C001C0
C000C0
C000C0
C000C0
C000C0
C001C0
C00380
FFFF00
FFFC00
C00000
C00000
C00000
C00000
C00000
C00000
C00000
ENDCHAR
STARTCHAR Q
ENCODING 81
SWIDTH 983 0
DWIDTH 28 0
BBX 26 19 2 0
BITMAP
00FF8000
07FFE000
1F00F800
38001C00
70000E00
60000600
E0000700
C0000300
C0000300
C0000300
C0000300
C0000300
E0000700
60060600
70038E00
3800FC00
1F00FC00
07FFEFC0
01FF8180
ENDCHAR
STARTCHAR R
ENCODING 82
SWIDTH 833 0
DWIDTH 23 0
BBX 19 19 3 0
BITMAP
FFF800
FFFE00
C00700
C00380
C00180
C00180
C00180
C00380
C00700
FFFE00
FFF800
C01800
C00C00
C00E00
C00600
C00300
C00180
C001C0
C000E0
ENDCHAR
STARTCHAR S
ENCODING 83
SWIDTH 787 0
DWIDTH 22 0
BBX 18 19 2 0
BITMAP
0FFC00
3FFF00
700300
E00000
C00000
C00000
E00000
7C0000
1FC000
03FC00
003F00
000380
0001C0
0000C0
0000C0
0001C0
C00780
FFFF00
3FF800
ENDCHAR
STARTCHAR T
ENCODING 84
SWIDTH 708 0
DWIDTH 20 0
BBX 20 19 0 0
BITMAP
FFFFF0
FFFFF0
006000
006000
006000
006000
006000
006000
006000
006000
006000
006000
006000
006000
006000
006000
006000
006000
006000
ENDCHAR
STARTCHAR U
ENCODING 85
SWIDTH 891 0
DWIDTH 25 0
BBX 19 19 3 0
BITMAP
C00060
C00060
C00060
C00060
C00060
C00060
C00060
C00060
C00060
C00060
C00060
C00060
C00060
C00060
C00060
6000C0
7803C0
1FFF00
07FC00
ENDCHAR
STARTCHAR V
ENCODING 86
SWIDTH 817 0
DWIDTH 23 0
BBX 21 19 1 0
BITMAP
C00018
600030
600030
300060
300060
1800C0
1800C0
1C0180
0C0180
0E0300
060300
070600
030600
038C00
018C00
01D800
00D800
00F000
007000
ENDCHAR
STARTCHAR W
ENCODING 87
SWIDTH 1266 0
DWIDTH 35 0
BBX 33 19 1 0
BITMAP
C001C00180
C001C00180
6003600300
6003600300
6002200300
3006300600
3006300600
180C180C00
180C180C00
180C080C00
0C180C1800
0C180C1800
0430063000
0630063000
0630063000
0360036000
0360036000
0140014000
01C001C000
ENDCHAR
STARTCHAR X
ENCODING 88
SWIDTH 821 0
DWIDTH 23 0
BBX 20 19 2 0
BITMAP
E00070
7000E0
3801C0
1C0380
0E0700
060600
030C00
019800
00F000
006000
00F000
019800
030C00
060600
0C0300
180380
3801C0
7000E0
E00070
ENDCHAR
STARTCHAR Y
ENCODING 89
SWIDTH 763 0
DWIDTH 21 0
BBX 20 19 1 0
BITMAP
E00070
7000E0
3801C0
180180
0C0300
060600
070E00
039C00
019800
00F000
006000
006000
006000
006000
006000
006000
006000
006000
006000
ENDCHAR
STARTCHAR Z
ENCODING 90
SWIDTH 728 0
DWIDTH 20 0
BBX 16 19 2 0
BITMAP
FFFF
FFFF
0006
000C
0018
0030
0060
00E0
01C0
0180
0300
0600
0C00
1800
3800
7000
6000
FFFF
FFFF
ENDCHAR
STARTCHAR bracketleft
ENCODING 91
SWIDTH 409 0
DWIDTH 11 0
BBX 7 22 4 -2
BITMAP
FE
FE
C0
C0
C0
C0
C0
C0
C0
C0
C0
C0
C0
C0
C0
C0
C0
C0
C0
C0
FE
FE
ENDCHAR
STARTCHAR backslash
ENCODING 92
SWIDTH 500 0
DWIDTH 14 0
BBX 11 21 2 -1
BITMAP
C000
6000
6000
7000
3000
3000
1800
1800
0C00
0C00
0E00
0600
0600
0300
0300
0180
0180
01C0
00C0
00C0
0060
ENDCHAR
STARTCHAR bracketright
ENCODING 93
SWIDTH 409 0
DWIDTH 11 0
BBX 7 22 1 -2
BITMAP
FE
FE
06
06
06
06
06
06
06
06
06
06
06
06
06
06
06
06
06
06
FE
FE
ENDCHAR
STARTCHAR asciicircum
ENCODING 94
SWIDTH 459 0
DWIDTH 13 0
BBX 11 8 1 11
BITMAP
0E00
0A00
1B00
1100
3180
60C0
60C0
C060
ENDCHAR
STARTCHAR underscore
ENCODING 95
SWIDTH 500 0
DWIDTH 14 0
BBX 14 2 0 -4
BITMAP
FFFC
FFFC
ENDCHAR
STARTCHAR grave
ENCODING 96
SWIDTH 527 0
DWIDTH 15 0
BBX 7 4 3 15
BITMAP
C0
F0
1C
06
ENDCHAR
STARTCHAR a
ENCODING 97
SWIDTH 888 0
DWIDTH 25 0
BBX 20 19 2 0
BITMAP
07FE00
3FFF80
3003E0
000060
000030
000030
000030
000FF0
03FFF0
1FF030
3C0030
700030
C00030
C00030
C00030
E000F0
7807F0
3FFF30
0FF030
ENDCHAR
STARTCHAR b
ENCODING 98
SWIDTH 836 0
DWIDTH 23 0
BBX 19 19 3 0
BITMAP
FFFE00
FFFF80
C00380
C000C0
C000C0
C000C0
C000C0
C00380
FFFF00
FFFF80
C001C0
C000E0
C00060
C00060
C00060
C000E0
C001C0
FFFF80
FFFF00
ENDCHAR
STARTCHAR c
ENCODING 99
SWIDTH 869 0
DWIDTH 24 0
BBX 21 19 2 0
BITMAP
00FF80
07FFF0
1F0078
380008
700000
600000
E00000
C00000
C00000
C00000
C00000
C00000
E00000
600000
700000
380008
1F0078
07FFF0
00FF80
ENDCHAR
STARTCHAR d
ENCODING 100
SWIDTH 910 0
DWIDTH 25 0
BBX 21 19 3 0
BITMAP
FFFE00
FFFF80
C003C0
C000E0
C00070
C00030
C00018
C00018
C00018
C00018
C00018
C00018
C00018
C00030
C00070
C000E0
C003C0
FFFF80
FFFE00
ENDCHAR
STARTCHAR e
ENCODING 101
SWIDTH 910 0
DWIDTH 25 0
BBX 22 19 2 0
BITMAP
01FE00
07FFC0
1E01E0
380070
700038
600018
C0000C
C0000C
FFFFFC
FFFFFC
C00000
C00000
E00000
600000
700000
380000
1F0030
07FFF0
00FFC0
ENDCHAR
STARTCHAR f
ENCODING 102
SWIDTH 817 0
DWIDTH 23 0
BBX 18 19 3 0
BITMAP
07FFC0
3FFFC0
780000
600000
E00000
C00000
C00000
C00000
C00000
FFFFC0
FFFFC0
C00000
C00000
C00000
C00000
C00000
C00000
C00000
C00000
ENDCHAR
STARTCHAR g
ENCODING 103
SWIDTH 910 0
DWIDTH 25 0
BBX 21 19 2 0
BITMAP
00FF80
07FFF0
1F0078
3C0008
700000
600000
E00000
C00000
C00000
C00000
C00FF8
C00FF8
E00018
600018
700018
3C0018
1F0038
07FFF8
00FFC0
ENDCHAR
STARTCHAR h
ENCODING 104
SWIDTH 949 0
DWIDTH 27 0
BBX 20 19 3 0
BITMAP
C00030
C00030
C00030
C00030
C00030
C00030
C00030
C00030
FFFFF0
FFFFF0
C00030
C00030
C00030
C00030
C00030
C00030
C00030
C00030
C00030
ENDCHAR
STARTCHAR i
ENCODING 105
SWIDTH 287 0
DWIDTH 8 0
BBX 2 19 3 0
BITMAP
C0
C0
C0
C0
C0
C0
C0
C0
C0
C0
C0
C0
C0
C0
C0
C0
C0
C0
C0
ENDCHAR
STARTCHAR j
ENCODING 106
SWIDTH 590 0
DWIDTH 17 0
BBX 13 19 0 0
BITMAP
0018
0018
0018
0018
0018
0018
0018
0018
0018
0018
0018
0018
0018
0018
0018
0030
C0F0
FFE0
3F80
ENDCHAR
STARTCHAR k
ENCODING 107
SWIDTH 867 0
DWIDTH 24 0
BBX 19 19 3 0
BITMAP
C000C0
C000C0
C00180
C00180
C00300
C00600
C01C00
C0F800
FFC000
FFF000
C07C00
C00E00
C00700
C00380
C001C0
C000C0
C000E0
C00060
C00060
ENDCHAR
STARTCHAR l
ENCODING 108
SWIDTH 709 0
DWIDTH 20 0
BBX 16 19 3 0
BITMAP
C000
C000
C000
C000
C000
C000
C000
C000
C000
C000
C000
C000
C000
C000
C000
E000
7000
3FFF
1FFF
ENDCHAR
STARTCHAR m
ENCODING 109
SWIDTH 1246 0
DWIDTH 35 0
BBX 29 19 3 0
BITMAP
C3E01F80
CFF87FE0
DC1CE070
F00F8030
E0070018
C0060018
C0060018
C0060018
C0060018
C0060018
C0060018
C0060018
C0060018
C0060018
C0060018
C0060018
C0060018
C0060018
C0060018
ENDCHAR
STARTCHAR n
ENCODING 110
SWIDTH 933 0
DWIDTH 26 0
BBX 20 19 3 0
BITMAP
C07F00
C3FFC0
CF81E0
FC0060
F00030
E00030
C00030
C00030
C00030
C00030
C00030
C00030
C00030
C00030
C00030
C00030
C00030
C00030
C00030
ENDCHAR
STARTCHAR o
ENCODING 111
SWIDTH 983 0
DWIDTH 28 0
BBX 24 19 2 0
BITMAP
00FF80
07FFE0
1F00F8
38001C
70000E
600006
E00007
C00003
C00003
C00003
C00003
C00003
E00007
600006
70000E
38001C
1F00F8
07FFE0
01FF80
ENDCHAR
STARTCHAR p
ENCODING 112
SWIDTH 818 0
DWIDTH 23 0
BBX 18 19 3 0
BITMAP
FFFC00
FFFF00
C00380
C001C0
C000C0
C000C0
C000C0
C000C0
C001C0
C00380
FFFF00
FFFC00
C00000
C00000
C00000
C00000
C00000
C00000
C00000
ENDCHAR
STARTCHAR q
ENCODING 113
SWIDTH 983 0
DWIDTH 28 0
BBX 26 19 2 0
BITMAP
00FF8000
07FFE000
1F00F800
38001C00
70000E00
60000600
E0000700
C0000300
C0000300
C0000300
C0000300
C0000300
E0000700
60000600
70000E00
38001C00
1F00F800
07FFFFC0
01FF8180
ENDCHAR
STARTCHAR r
ENCODING 114
SWIDTH 609 0
DWIDTH 17 0
BBX 14 19 3 0
BITMAP
C0FC
C3FC
CF00
DC00
F000
E000
C000
C000
C000
C000
C000
C000
C000
C000
C000
C000
C000
C000
C000
ENDCHAR
STARTCHAR s
ENCODING 115
SWIDTH 787 0
DWIDTH 22 0
BBX 18 19 2 0
BITMAP
0FFC00
3FFF00
700300
E00000
C00000
C00000
E00000
7C0000
1FC000
03FC00
003F00
000380
0001C0
0000C0
0000C0
0001C0
C00780
FFFF00
3FF800
ENDCHAR
STARTCHAR t
ENCODING 116
SWIDTH 708 0
DWIDTH 20 0
BBX 20 19 0 0
BITMAP
FFFFF0
FFFFF0
006000
006000
006000
006000
006000
006000
006000
006000
006000
006000
006000
006000
006000
006000
006000
006000
006000
ENDCHAR
STARTCHAR u
ENCODING 117
SWIDTH 931 0
DWIDTH 26 0
BBX 20 19 3 0
BITMAP
C00030
C00030
C00030
C00030
C00030
C00030
C00030
C00030
C00030
C00030
C00030
C00030
C00030
C00070
C000F0
6003F0
701F30
3FFC30
0FE030
ENDCHAR
STARTCHAR v
ENCODING 118
SWIDTH 817 0
DWIDTH 23 0
BBX 21 19 1 0
BITMAP
C00018
600030
600030
300060
300060
1800C0
1800C0
1C0180
0C0180
0E0300
060300
070600
030600
038C00
018C00
01D800
00D800
00F000
007000
ENDCHAR
STARTCHAR w
ENCODING 119
SWIDTH 1266 0
DWIDTH 35 0
BBX 33 19 1 0
BITMAP
C001C00180
C001C00180
6003600300
6003600300
6002200300
3006300600
3006300600
180C180C00
180C180C00
180C080C00
0C180C1800
0C180C1800
0430063000
0630063000
0630063000
0360036000
0360036000
0140014000
01C001C000
ENDCHAR
STARTCHAR x
ENCODING 120
SWIDTH 821 0
DWIDTH 23 0
BBX 20 19 2 0
BITMAP
E00070
7000E0
3801C0
1C0380
0E0700
060600
030C00
019800
00F000
006000
00F000
019800
030C00
060600
0C0300
180380
3801C0
7000E0
E00070
ENDCHAR
STARTCHAR y
ENCODING 121
SWIDTH 911 0
DWIDTH 26 0
BBX 20 19 2 0
BITMAP
C00030
C00030
C00030
C00030
C00030
C00030
C00030
E00070
6000F0
7003B0
3C0F30
1FFC30
07F030
000030
000060
0001E0
C007C0
FFFF00
3FF800
ENDCHAR
STARTCHAR z
ENCODING 122
SWIDTH 728 0
DWIDTH 20 0
BBX 16 19 2 0
BITMAP
FFFF
FFFF
0006
000C
0018
0030
0060
00E0
01C0
0180
0300
0600
0C00
1800
3800
7000
6000
FFFF
FFFF
ENDCHAR
STARTCHAR braceleft
ENCODING 123
SWIDTH 386 0
DWIDTH 11 0
BBX 8 22 1 -2
BITMAP
07
0F
18
18
18
18
18
18
18
30
E0
30
18
18
18
18
18
18
18
18
0F
07
ENDCHAR
STARTCHAR bar
ENCODING 124
SWIDTH 259 0
DWIDTH 7 0
BBX 2 28 3 -7
BITMAP
C0
C0
C0
C0
C0
C0
C0
C0
C0
C0
C0
C0
C0
C0
C0
C0
C0
C0
C0
C0
C0
C0
C0
C0
C0
C0
C0
C0
ENDCHAR
STARTCHAR braceright
ENCODING 125
SWIDTH 386 0
DWIDTH 11 0
BBX 8 22 2 -2
BITMAP
E0
F0
18
18
18
18
18
18
18
0C
07
0C
18
18
18
18
18
18
18
18
F0
E0
ENDCHAR
STARTCHAR asciitilde
ENCODING 126
SWIDTH 634 0
DWIDTH 18 0
BBX 14 3 2 8
BITMAP
7E04
FFFC
81F8
ENDCHAR
STARTCHAR nonbreakingspace
ENCODING 160
SWIDTH 375 0
DWIDTH 11 0
BBX 1 1 0 0
BITMAP
00
ENDCHAR
STARTCHAR exclamdown
ENCODING 161
SWIDTH 274 0
DWIDTH 8 0
BBX 2 19 3 0
BITMAP
C0
C0
C0
00
00
C0
C0
C0
C0
C0
C0
C0
C0
C0
C0
C0
C0
C0
C0
ENDCHAR
STARTCHAR cent
ENCODING 162
SWIDTH 736 0
DWIDTH 21 0
BBX 18 22 1 -2
BITMAP
002000
002000
01FE00
0FFF80
1E21C0
382040
702000
602000
C02000
C02000
C02000
C02000
C02000
602000
602000
382040
1E21C0
0FFF80
01FE00
002000
002000
002000
ENDCHAR
STARTCHAR sterling
ENCODING 163
SWIDTH 792 0
DWIDTH 22 0
BBX 19 19 2 0
BITMAP
00FF00
03FFC0
0780C0
060000
0E0000
0C0000
0C0000
0C0000
0C0000
FFFE00
FFFE00
0C0000
0C0000
0C0000
0C0000
180000
3FC020
FFFFE0
C03FC0
ENDCHAR
STARTCHAR currency
ENCODING 164
SWIDTH 560 0
DWIDTH 16 0
BBX 12 12 2 3
BITMAP
C030
EF70
7FE0
30C0
6060
6060
6060
6060
30C0
7FE0
EF70
C030
ENDCHAR
STARTCHAR yen
ENCODING 165
SWIDTH 811 0
DWIDTH 23 0
BBX 20 19 2 0
BITMAP
E00070
7000E0
3000C0
180180
0C0300
060600
070E00
030C00
7F9FE0
7FFFE0
00F000
006000
7FFFE0
7FFFE0
006000
006000
006000
006000
006000
ENDCHAR
STARTCHAR brokenbar
ENCODING 166
SWIDTH 259 0
DWIDTH 7 0
BBX 2 25 3 -5
BITMAP
C0
C0
C0
C0
C0
C0
C0
C0
C0
C0
00
00
00
00
00
C0
C0
C0
C0
C0
C0
C0
C0
C0
C0
ENDCHAR
STARTCHAR section
ENCODING 167
SWIDTH 500 0
DWIDTH 14 0
BBX 11 19 2 0
BITMAP
1F80
3FC0
7040
6000
7000
3800
7F00
C380
C0E0
C060
E060
38E0
1FC0
0380
01C0
00C0
41C0
7F80
3F00
ENDCHAR
STARTCHAR dieresis
ENCODING 168
SWIDTH 527 0
DWIDTH 15 0
BBX 8 2 4 16
BITMAP
C3
C3
ENDCHAR
STARTCHAR copyright
ENCODING 169
SWIDTH 770 0
DWIDTH 22 0
BBX 19 19 1 0
BITMAP
03F800
0C0600
100100
200080
41F840
430C40
860420
8C0020
8C0020
8C0020
8C0020
8C0020
860420
430C40
41F840
200080
100100
0C0600
03F000
ENDCHAR
STARTCHAR ordfeminine
ENCODING 170
SWIDTH 497 0
DWIDTH 14 0
BBX 12 13 1 6
BITMAP
1FC0
6060
0030
0030
0FF0
7830
C030
C030
E0F0
3FB0
0000
0000
FFF0
ENDCHAR
STARTCHAR guillemotleft
ENCODING 171
SWIDTH 440 0
DWIDTH 12 0
BBX 10 11 1 4
BITMAP
1080
18C0
3180
6300
E700
C600
E700
6300
3180
18C0
1080
ENDCHAR
STARTCHAR logicalnot
ENCODING 172
SWIDTH 634 0
DWIDTH 18 0
BBX 13 6 2 7
BITMAP
FFF8
FFF8
0018
0018
0018
0018
ENDCHAR
STARTCHAR uni00AD
ENCODING 173
SWIDTH 540 0
DWIDTH 15 0
BBX 11 2 2 9
BITMAP
FFE0
FFE0
ENDCHAR
STARTCHAR registered
ENCODING 174
SWIDTH 600 0
DWIDTH 17 0
BBX 14 14 1 5
BITMAP
0FC0
1020
2010
4F88
8844
8844
88C4
8F84
8884
88C4
4848
2010
1020
0FC0
ENDCHAR
STARTCHAR macron
ENCODING 175
SWIDTH 527 0
DWIDTH 15 0
BBX 8 2 4 16
BITMAP
FF
FF
ENDCHAR
STARTCHAR degree
ENCODING 176
SWIDTH 373 0
DWIDTH 10 0
BBX 7 7 2 12
BITMAP
38
6C
C6
C6
C6
6C
38
ENDCHAR
STARTCHAR plusminus
ENCODING 177
SWIDTH 634 0
DWIDTH 18 0
BBX 14 15 2 2
BITMAP
0300
0300
0300
0300
0300
FFFC
FFFC
0300
0300
0300
0300
0300
0000
FFFC
FFFC
ENDCHAR
STARTCHAR twosuperior
ENCODING 178
SWIDTH 511 0
DWIDTH 14 0
BBX 11 12 1 7
BITMAP
3F00
C1C0
8060
0060
0060
00C0
0180
0300
0E00
1800
7000
FFE0
ENDCHAR
STARTCHAR threesuperior
ENCODING 179
SWIDTH 512 0
DWIDTH 14 0
BBX 11 12 1 7
BITMAP
7F80
80C0
0060
0060
01C0
0F00
01C0
0060
0060
0060
81C0
7F00
ENDCHAR
STARTCHAR acute
ENCODING 180
SWIDTH 527 0
DWIDTH 15 0
BBX 7 4 6 15
BITMAP
06
1E
70
C0
ENDCHAR
STARTCHAR micro
ENCODING 181
SWIDTH 705 0
DWIDTH 20 0
BBX 17 19 1 -6
BITMAP
0C0180
0C0180
080380
180300
180300
180300
180300
100700
300600
380E00
3C3E00
37F600
33C300
600000
600000
600000
600000
600000
C00000
ENDCHAR
STARTCHAR paragraph
ENCODING 182
SWIDTH 585 0
DWIDTH 16 0
BBX 12 19 1 0
BITMAP
0FF0
3F10
7F10
FF10
FF10
FF10
FF10
FF10
7F10
3F10
0F10
0110
0110
0110
0110
0110
0110
0110
0110
ENDCHAR
STARTCHAR periodcentered
ENCODING 183
SWIDTH 185 0
DWIDTH 5 0
BBX 2 3 1 8
BITMAP
C0
C0
C0
ENDCHAR
STARTCHAR cedilla
ENCODING 184
SWIDTH 527 0
DWIDTH 15 0
BBX 6 5 5 -5
BITMAP
20
78
04
84
78
ENDCHAR
STARTCHAR onesuperior
ENCODING 185
SWIDTH 261 0
DWIDTH 7 0
BBX 5 12 0 7
BITMAP
78
D8
18
18
18
18
18
18
18
18
18
18
ENDCHAR
STARTCHAR ordmasculine
ENCODING 186
SWIDTH 520 0
DWIDTH 15 0
BBX 13 13 1 6
BITMAP
1FC0
3060
6030
C018
C018
C018
C018
6030
3060
1FC0
0000
0000
7FF0
ENDCHAR
STARTCHAR guillemotright
ENCODING 187
SWIDTH 440 0
DWIDTH 12 0
BBX 10 11 1 4
BITMAP
4200
C600
6300
3180
39C0
18C0
39C0
3180
6300
C600
4200
ENDCHAR
STARTCHAR onequarter
ENCODING 188
SWIDTH 857 0
DWIDTH 24 0
BBX 22 19 1 0
BITMAP
700060
B000C0
300180
300300
300600
300600
300C00
301800
303000
3070E0
0061E0
00C360
018660
030C60
031860
063060
0C3FFC
180060
300060
ENDCHAR
STARTCHAR onehalf
ENCODING 189
SWIDTH 937 0
DWIDTH 26 0
BBX 23 19 1 0
BITMAP
700060
B000C0
300180
300300
300600
300600
300C00
301800
303000
3071F8
00620C
00C006
018006
03000E
03001C
060038
0C0060
1801C0
3003FE
ENDCHAR
STARTCHAR threequarters
ENCODING 190
SWIDTH 978 0
DWIDTH 27 0
BBX 25 19 1 0
BITMAP
7F001800
81C03000
00C06000
0180C000
1E018000
01818000
00C30000
00C60000
818C0000
7F1C1C00
00183C00
00306C00
0060CC00
00C18C00
00C30C00
01860C00
0307FF80
06000C00
0C000C00
ENDCHAR
STARTCHAR questiondown
ENCODING 191
SWIDTH 568 0
DWIDTH 16 0
BBX 12 19 2 0
BITMAP
0180
0180
0180
0000
0000
0000
0180
0180
0380
1F00
3800
6000
C000
C000
C000
E000
7010
3FF0
0FE0
ENDCHAR
STARTCHAR Agrave
ENCODING 192
SWIDTH 812 0
DWIDTH 23 0
BBX 21 24 1 0
BITMAP
030000
03C000
007000
001800
000000
007000
007000
00D800
00D800
018C00
018C00
030600
030600
060300
060300
0C0180
0C0180
1FFFC0
3FFFC0
300060
700070
600030
E00038
C00018
ENDCHAR
STARTCHAR Aacute
ENCODING 193
SWIDTH 812 0
DWIDTH 23 0
BBX 21 24 1 0
BITMAP
000300
000F00
003800
006000
000000
007000
007000
00D800
00D800
018C00
018C00
030600
030600
060300
060300
0C0180
0C0180
1FFFC0
3FFFC0
300060
700070
600030
E00038
C00018
ENDCHAR
STARTCHAR Acircumflex
ENCODING 194
SWIDTH 812 0
DWIDTH 23 0
BBX 21 24 1 0
BITMAP
002000
00F800
038E00
060300
000000
007000
007000
00D800
00D800
018C00
018C00
030600
030600
060300
060300
0C0180
0C0180
1FFFC0
3FFFC0
300060
700070
600030
E00038
C00018
ENDCHAR
STARTCHAR Atilde
ENCODING 195
SWIDTH 812 0
DWIDTH 23 0
BBX 21 24 1 0
BITMAP
01C100
023100
020E00
000000
000000
007000
007000
00D800
00D800
018C00
018C00
030600
030600
060300
060300
0C0180
0C0180
1FFFC0
3FFFC0
300060
700070
600030
E00038
C00018
ENDCHAR
STARTCHAR Adieresis
ENCODING 196
SWIDTH 812 0
DWIDTH 23 0
BBX 21 23 1 0
BITMAP
018600
018600
000000
000000
007000
007000
00D800
00D800
018C00
018C00
030600
030600
060300
060300
0C0180
0C0180
1FFFC0
3FFFC0
300060
700070
600030
E00038
C00018
ENDCHAR
STARTCHAR Aring
ENCODING 197
SWIDTH 812 0
DWIDTH 23 0
BBX 21 25 1 0
BITMAP
00F800
018C00
018C00
018C00
00F800
000000
007000
007000
00D800
00D800
018C00
018C00
030600
030600
060300
060300
0C0180
0C0180
1FFFC0
3FFFC0
300060
700070
600030
E00038
C00018
ENDCHAR
STARTCHAR AE
ENCODING 198
SWIDTH 1172 0
DWIDTH 33 0
BBX 31 19 0 0
BITMAP
0007FFFE
000FFFFE
001D8000
00398000
00318000
00618000
00E18000
00C18000
0181FFFC
0381FFFC
03018000
06018000
0FFF8000
0FFF8000
18018000
38018000
30018000
6001FFFE
E001FFFE
ENDCHAR
STARTCHAR Ccedilla
ENCODING 199
SWIDTH 869 0
DWIDTH 24 0
BBX 21 24 2 -5
BITMAP
00FF80
07FFF0
1F0078
380008
700000
600000
E00000
C00000
C00000
C00000
C00000
C00000
E00000
600000
700000
380008
1F0078
07FFF0
00FF80
001000
003C00
000200
004200
003C00
ENDCHAR
STARTCHAR Egrave
ENCODING 200
SWIDTH 754 0
DWIDTH 21 0
BBX 16 24 3 0
BITMAP
0800
1E00
03C0
0040
0000
FFFF
FFFF
C000
C000
C000
C000
C000
C000
FFFE
FFFE
C000
C000
C000
C000
C000
C000
C000
FFFF
FFFF
ENDCHAR
STARTCHAR Eacute
ENCODING 201
SWIDTH 754 0
DWIDTH 21 0
BBX 16 24 3 0
BITMAP
0008
0078
01E0
0300
0000
FFFF
FFFF
C000
C000
C000
C000
C000
C000
FFFE
FFFE
C000
C000
C000
C000
C000
C000
C000
FFFF
FFFF
ENDCHAR
STARTCHAR Ecircumflex
ENCODING 202
SWIDTH 754 0
DWIDTH 21 0
BBX 16 24 3 0
BITMAP
0180
07E0
1C38
3008
0000
FFFF
FFFF
C000
C000
C000
C000
C000
C000
FFFE
FFFE
C000
C000
C000
C000
C000
C000
C000
FFFF
FFFF
ENDCHAR
STARTCHAR Edieresis
ENCODING 203
SWIDTH 754 0
DWIDTH 21 0
BBX 16 23 3 0
BITMAP
0C30
0C30
0000
0000
FFFF
FFFF
C000
C000
C000
C000
C000
C000
FFFE
FFFE
C000
C000
C000
C000
C000
C000
C000
FFFF
FFFF
ENDCHAR
STARTCHAR Igrave
ENCODING 204
SWIDTH 287 0
DWIDTH 8 0
BBX 7 24 -1 0
BITMAP
80
F0
3C
06
00
0C
0C
0C
0C
0C
0C
0C
0C
0C
0C
0C
0C
0C
0C
0C
0C
0C
0C
0C
ENDCHAR
STARTCHAR Iacute
ENCODING 205
SWIDTH 287 0
DWIDTH 8 0
BBX 7 24 2 0
BITMAP
04
1E
70
80
00
60
60
60
60
60
60
60
60
60
60
60
60
60
60
60
60
60
60
60
ENDCHAR
STARTCHAR Icircumflex
ENCODING 206
SWIDTH 287 0
DWIDTH 8 0
BBX 11 24 -1 0
BITMAP
0C00
3F00
71C0
8060
0000
0C00
0C00
0C00
0C00
0C00
0C00
0C00
0C00
0C00
0C00
0C00
0C00
0C00
0C00
0C00
0C00
0C00
0C00
0C00
ENDCHAR
STARTCHAR Idieresis
ENCODING 207
SWIDTH 287 0
DWIDTH 8 0
BBX 8 23 0 0
BITMAP
C3
C3
00
00
18
18
18
18
18
18
18
18
18
18
18
18
18
18
18
18
18
18
18
ENDCHAR
STARTCHAR Eth
ENCODING 208
SWIDTH 910 0
DWIDTH 25 0
BBX 24 19 0 0
BITMAP
1FFF80
1FFFF0
1800F8
18001C
18000E
180006
180003
180003
180003
FFF803
FFF803
180003
180003
180006
18000E
18001C
180078
1FFFF0
1FFF80
ENDCHAR
STARTCHAR Ntilde
ENCODING 209
SWIDTH 936 0
DWIDTH 26 0
BBX 20 24 3 0
BITMAP
038200
044400
043C00
000000
000000
E00030
F00030
F80030
DC0030
CC0030
C60030
C30030
C18030
C0C030
C06030
C03030
C01830
C00C30
C00630
C00730
C003B0
C001F0
C000F0
C00070
ENDCHAR
STARTCHAR Ograve
ENCODING 210
SWIDTH 983 0
DWIDTH 28 0
BBX 24 24 2 0
BITMAP
008000
01E000
003800
000400
000000
00FF80
07FFE0
1F00F8
38001C
70000E
600006
E00007
C00003
C00003
C00003
C00003
C00003
E00007
600006
70000E
38001C
1F00F8
07FFE0
01FF80
ENDCHAR
STARTCHAR Oacute
ENCODING 211
SWIDTH 983 0
DWIDTH 28 0
BBX 24 24 2 0
BITMAP
000080
000780
001E00
003000
000000
00FF80
07FFE0
1F00F8
38001C
70000E
600006
E00007
C00003
C00003
C00003
C00003
C00003
E00007
600006
70000E
38001C
1F00F8
07FFE0
01FF80
ENDCHAR
STARTCHAR Ocircumflex
ENCODING 212
SWIDTH 983 0
DWIDTH 28 0
BBX 24 24 2 0
BITMAP
001800
007E00
01C700
030080
000000
00FF80
07FFE0
1F00F8
38001C
70000E
600006
E00007
C00003
C00003
C00003
C00003
C00003
E00007
600006
70000E
38001C
1F00F8
07FFE0
01FF80
ENDCHAR
STARTCHAR Otilde
ENCODING 213
SWIDTH 983 0
DWIDTH 28 0
BBX 24 24 2 0
BITMAP
007080
009880
010700
000000
000000
00FF80
07FFE0
1F00F8
38001C
70000E
600006
E00007
C00003
C00003
C00003
C00003
C00003
E00007
600006
70000E
38001C
1F00F8
07FFE0
01FF80
ENDCHAR
STARTCHAR Odieresis
ENCODING 214
SWIDTH 983 0
DWIDTH 28 0
BBX 24 23 2 0
BITMAP
00C300
00C300
000000
000000
00FF80
07FFE0
1F00F8
38001C
70000E
600006
E00007
C00003
C00003
C00003
C00003
C00003
E00007
600006
70000E
38001C
1F00F8
07FFE0
01FF80
ENDCHAR
STARTCHAR multiply
ENCODING 215
SWIDTH 634 0
DWIDTH 18 0
BBX 12 12 3 4
BITMAP
4020
E070
70E0
39C0
1F80
0F00
0F00
1F80
39C0
70E0
E070
4020
ENDCHAR
STARTCHAR Oslash
ENCODING 216
SWIDTH 983 0
DWIDTH 28 0
BBX 24 23 2 -2
BITMAP
000018
000030
00FF20
07FFE0
1F00F8
3800DC
70018E
600306
E00607
C00403
C00C03
C01803
C03003
C02003
E06007
60C006
71800E
39001C
1F00F8
07FFE0
05FF80
0C0000
180000
ENDCHAR
STARTCHAR Ugrave
ENCODING 217
SWIDTH 891 0
DWIDTH 25 0
BBX 19 24 3 0
BITMAP
020000
078000
00E000
003000
000000
C00060
C00060
C00060
C00060
C00060
C00060
C00060
C00060
C00060
C00060
C00060
C00060
C00060
C00060
C00060
6000C0
7803C0
1FFF00
07FC00
ENDCHAR
STARTCHAR Uacute
ENCODING 218
SWIDTH 891 0
DWIDTH 25 0
BBX 19 24 3 0
BITMAP
000C00
003C00
00E000
018000
000000
C00060
C00060
C00060
C00060
C00060
C00060
C00060
C00060
C00060
C00060
C00060
C00060
C00060
C00060
C00060
6000C0
7803C0
1FFF00
07FC00
ENDCHAR
STARTCHAR Ucircumflex
ENCODING 219
SWIDTH 891 0
DWIDTH 25 0
BBX 19 24 3 0
BITMAP
006000
01F000
071C00
0C0600
000000
C00060
C00060
C00060
C00060
C00060
C00060
C00060
C00060
C00060
C00060
C00060
C00060
C00060
C00060
C00060
6000C0
7803C0
1FFF00
07FC00
ENDCHAR
STARTCHAR Udieresis
ENCODING 220
SWIDTH 891 0
DWIDTH 25 0
BBX 19 23 3 0
BITMAP
030C00
030C00
000000
000000
C00060
C00060
C00060
C00060
C00060
C00060
C00060
C00060
C00060
C00060
C00060
C00060
C00060
C00060
C00060
6000C0
7803C0
1FFF00
07FC00
ENDCHAR
STARTCHAR Yacute
ENCODING 221
SWIDTH 763 0
DWIDTH 21 0
BBX 20 24 1 0
BITMAP
000600
001E00
007800
00C000
000000
E00070
7000E0
3801C0
180180
0C0300
060600
070E00
039C00
019800
00F000
006000
006000
006000
006000
006000
006000
006000
006000
006000
ENDCHAR
STARTCHAR Thorn
ENCODING 222
SWIDTH 787 0
DWIDTH 22 0
BBX 17 19 3 0
BITMAP
C00000
C00000
C00000
FFF800
FFFE00
C00700
C00380
C00180
C00180
C00180
C00180
C00380
C00700
FFFE00
FFF800
C00000
C00000
C00000
C00000
ENDCHAR
STARTCHAR germandbls
ENCODING 223
SWIDTH 863 0
DWIDTH 24 0
BBX 20 19 3 0
BITMAP
07F800
1FFF00
3C0780
7001C0
E000C0
C000C0
C001C0
C00380
C3FF00
C3FF80
C003C0
C00060
C00030
C00030
C00030
C00070
CC01E0
CFFFC0
C3FE00
ENDCHAR
STARTCHAR agrave
ENCODING 224
SWIDTH 888 0
DWIDTH 25 0
BBX 20 24 2 0
BITMAP
030000
03C000
007000
001800
000000
07FE00
3FFF80
3003E0
000060
000030
000030
000030
000FF0
03FFF0
1FF030
3C0030
700030
C00030
C00030
C00030
E000F0
7807F0
3FFF30
0FF030
ENDCHAR
STARTCHAR aacute
ENCODING 225
SWIDTH 888 0
DWIDTH 25 0
BBX 20 24 2 0
BITMAP
000200
000F00
003800
006000
000000
07FE00
3FFF80
3003E0
000060
000030
000030
000030
000FF0
03FFF0
1FF030
3C0030
700030
C00030
C00030
C00030
E000F0
7807F0
3FFF30
0FF030
ENDCHAR
STARTCHAR acircumflex
ENCODING 226
SWIDTH 888 0
DWIDTH 25 0
BBX 20 24 2 0
BITMAP
002000
00F800
038E00
060300
000000
07FE00
3FFF80
3003E0
000060
000030
000030
000030
000FF0
03FFF0
1FF030
3C0030
700030
C00030
C00030
C00030
E000F0
7807F0
3FFF30
0FF030
ENDCHAR
STARTCHAR atilde
ENCODING 227
SWIDTH 888 0
DWIDTH 25 0
BBX 20 24 2 0
BITMAP
01C100
023100
020E00
000000
000000
07FE00
3FFF80
3003E0
000060
000030
000030
000030
000FF0
03FFF0
1FF030
3C0030
700030
C00030
C00030
C00030
E000F0
7807F0
3FFF30
0FF030
ENDCHAR
STARTCHAR adieresis
ENCODING 228
SWIDTH 888 0
DWIDTH 25 0
BBX 20 23 2 0
BITMAP
018600
018600
000000
000000
07FE00
3FFF80
3003E0
000060
000030
000030
000030
000FF0
03FFF0
1FF030
3C0030
700030
C00030
C00030
C00030
E000F0
7807F0
3FFF30
0FF030
ENDCHAR
STARTCHAR aring
ENCODING 229
SWIDTH 888 0
DWIDTH 25 0
BBX 20 25 2 0
BITMAP
00F800
018C00
018C00
018C00
00F800
000000
07FE00
3FFF80
3003E0
000060
000030
000030
000030
000FF0
03FFF0
1FF030
3C0030
700030
C00030
C00030
C00030
E000F0
7807F0
3FFF30
0FF030
ENDCHAR
STARTCHAR ae
ENCODING 230
SWIDTH 1551 0
DWIDTH 43 0
BBX 40 19 2 0
BITMAP
07FE007F80
3FFF81FFF0
3001E38078
00006E001C
00003C000E
0000380006
0000300003
000FF00003
03FFFFFFFF
1FF03FFFFF
3C00300000
7000300000
C000380000
C000180000
C0003C0000
E000FE0000
7807C7C00C
3FFF01FFFC
0FF8007FF0
ENDCHAR
STARTCHAR ccedilla
ENCODING 231
SWIDTH 869 0
DWIDTH 24 0
BBX 21 24 2 -5
BITMAP
00FF80
07FFF0
1F0078
380008
700000
600000
E00000
C00000
C00000
C00000
C00000
C00000
E00000
600000
700000
380008
1F0078
07FFF0
00FF80
001000
003C00
000200
004200
003C00
ENDCHAR
STARTCHAR egrave
ENCODING 232
SWIDTH 910 0
DWIDTH 25 0
BBX 22 24 2 0
BITMAP
010000
03C000
007000
000800
000000
01FE00
07FFC0
1E01E0
380070
700038
600018
C0000C
C0000C
FFFFFC
FFFFFC
C00000
C00000
E00000
600000
700000
380000
1F0030
07FFF0
00FFC0
ENDCHAR
STARTCHAR eacute
ENCODING 233
SWIDTH 910 0
DWIDTH 25 0
BBX 22 24 2 0
BITMAP
000100
000F00
003C00
006000
000000
01FE00
07FFC0
1E01E0
380070
700038
600018
C0000C
C0000C
FFFFFC
FFFFFC
C00000
C00000
E00000
600000
700000
380000
1F0030
07FFF0
00FFC0
ENDCHAR
STARTCHAR ecircumflex
ENCODING 234
SWIDTH 910 0
DWIDTH 25 0
BBX 22 24 2 0
BITMAP
003000
00FC00
038E00
060100
000000
01FE00
07FFC0
1E01E0
380070
700038
600018
C0000C
C0000C
FFFFFC
FFFFFC
C00000
C00000
E00000
600000
700000
380000
1F0030
07FFF0
00FFC0
ENDCHAR
STARTCHAR edieresis
ENCODING 235
SWIDTH 910 0
DWIDTH 25 0
BBX 22 23 2 0
BITMAP
018600
018600
000000
000000
01FE00
07FFC0
1E01E0
380070
700038
600018
C0000C
C0000C
FFFFFC
FFFFFC
C00000
C00000
E00000
600000
700000
380000
1F0030
07FFF0
00FFC0
ENDCHAR
STARTCHAR igrave
ENCODING 236
SWIDTH 287 0
DWIDTH 8 0
BBX 7 24 -1 0
BITMAP
C0
F0
3C
06
00
0C
0C
0C
0C
0C
0C
0C
0C
0C
0C
0C
0C
0C
0C
0C
0C
0C
0C
0C
ENDCHAR
STARTCHAR iacute
ENCODING 237
SWIDTH 287 0
DWIDTH 8 0
BBX 7 24 2 0
BITMAP
04
1E
70
80
00
60
60
60
60
60
60
60
60
60
60
60
60
60
60
60
60
60
60
60
ENDCHAR
STARTCHAR icircumflex
ENCODING 238
SWIDTH 287 0
DWIDTH 8 0
BBX 11 24 -1 0
BITMAP
0C00
3F00
71C0
8060
0000
0C00
0C00
0C00
0C00
0C00
0C00
0C00
0C00
0C00
0C00
0C00
0C00
0C00
0C00
0C00
0C00
0C00
0C00
0C00
ENDCHAR
STARTCHAR idieresis
ENCODING 239
SWIDTH 287 0
DWIDTH 8 0
BBX 8 23 0 0
BITMAP
C3
C3
00
00
18
18
18
18
18
18
18
18
18
18
18
18
18
18
18
18
18
18
18
ENDCHAR
STARTCHAR eth
ENCODING 240
SWIDTH 910 0
DWIDTH 25 0
BBX 24 19 0 0
BITMAP
1FFF80
1FFFF0
1800F8
18001C
18000E
180006
180003
180003
180003
FFF803
FFF803
180003
180003
180006
18000E
18001C
180078
1FFFF0
1FFF80
ENDCHAR
STARTCHAR ntilde
ENCODING 241
SWIDTH 933 0
DWIDTH 26 0
BBX 20 24 3 0
BITMAP
01C200
026200
041C00
000000
000000
C07F00
C3FFC0
CF81E0
FC0060
F00030
E00030
C00030
C00030
C00030
C00030
C00030
C00030
C00030
C00030
C00030
C00030
C00030
C00030
C00030
ENDCHAR
STARTCHAR ograve
ENCODING 242
SWIDTH 983 0
DWIDTH 28 0
BBX 24 24 2 0
BITMAP
008000
01E000
003800
000400
000000
00FF80
07FFE0
1F00F8
38001C
70000E
600006
E00007
C00003
C00003
C00003
C00003
C00003
E00007
600006
70000E
38001C
1F00F8
07FFE0
01FF80
ENDCHAR
STARTCHAR oacute
ENCODING 243
SWIDTH 983 0
DWIDTH 28 0
BBX 24 24 2 0
BITMAP
000080
000780
001E00
003000
000000
00FF80
07FFE0
1F00F8
38001C
70000E
600006
E00007
C00003
C00003
C00003
C00003
C00003
E00007
600006
70000E
38001C
1F00F8
07FFE0
01FF80
ENDCHAR
STARTCHAR ocircumflex
ENCODING 244
SWIDTH 983 0
DWIDTH 28 0
BBX 24 24 2 0
BITMAP
001800
007E00
01C700
030080
000000
00FF80
07FFE0
1F00F8
38001C
70000E
600006
E00007
C00003
C00003
C00003
C00003
C00003
E00007
600006
70000E
38001C
1F00F8
07FFE0
01FF80
ENDCHAR
STARTCHAR otilde
ENCODING 245
SWIDTH 983 0
DWIDTH 28 0
BBX 24 24 2 0
BITMAP
007080
009880
010700
000000
000000
00FF80
07FFE0
1F00F8
38001C
70000E
600006
E00007
C00003
C00003
C00003
C00003
C00003
E00007
600006
70000E
38001C
1F00F8
07FFE0
01FF80
ENDCHAR
STARTCHAR odieresis
ENCODING 246
SWIDTH 983 0
DWIDTH 28 0
BBX 24 23 2 0
BITMAP
00C300
00C300
000000
000000
00FF80
07FFE0
1F00F8
38001C
70000E
600006
E00007
C00003
C00003
C00003
C00003
C00003
E00007
600006
70000E
38001C
1F00F8
07FFE0
01FF80
ENDCHAR
STARTCHAR divide
ENCODING 247
SWIDTH 634 0
DWIDTH 18 0
BBX 14 12 2 4
BITMAP
0300
0300
0000
0000
0000
FFFC
FFFC
0000
0000
0000
0300
0300
ENDCHAR
STARTCHAR oslash
ENCODING 248
SWIDTH 983 0
DWIDTH 28 0
BBX 24 23 2 -2
BITMAP
000018
000030
00FF20
07FFE0
1F00F8
3800DC
70018E
600306
E00607
C00403
C00C03
C01803
C03003
C02003
E06007
60C006
71800E
39001C
1F00F8
07FFE0
05FF80
0C0000
180000
ENDCHAR
STARTCHAR ugrave
ENCODING 249
SWIDTH 931 0
DWIDTH 26 0
BBX 20 24 3 0
BITMAP
040000
078000
01E000
003000
000000
C00030
C00030
C00030
C00030
C00030
C00030
C00030
C00030
C00030
C00030
C00030
C00030
C00030
C00070
C000F0
6003F0
701F30
3FFC30
0FE030
ENDCHAR
STARTCHAR uacute
ENCODING 250
SWIDTH 931 0
DWIDTH 26 0
BBX 20 24 3 0
BITMAP
000200
000F00
007800
004000
000000
C00030
C00030
C00030
C00030
C00030
C00030
C00030
C00030
C00030
C00030
C00030
C00030
C00030
C00070
C000F0
6003F0
701F30
3FFC30
0FE030
ENDCHAR
STARTCHAR ucircumflex
ENCODING 251
SWIDTH 931 0
DWIDTH 26 0
BBX 20 24 3 0
BITMAP
006000
01F800
038E00
040300
000000
C00030
C00030
C00030
C00030
C00030
C00030
C00030
C00030
C00030
C00030
C00030
C00030
C00030
C00070
C000F0
6003F0
701F30
3FFC30
0FE030
ENDCHAR
STARTCHAR udieresis
ENCODING 252
SWIDTH 931 0
DWIDTH 26 0
BBX 20 23 3 0
BITMAP
018600
018600
000000
000000
C00030
C00030
C00030
C00030
C00030
C00030
C00030
C00030
C00030
C00030
C00030
C00030
C00030
C00070
C000F0
6003F0
701F30
3FFC30
0FE030
ENDCHAR
STARTCHAR yacute
ENCODING 253
SWIDTH 911 0
DWIDTH 26 0
BBX 20 24 2 0
BITMAP
000300
000F00
003800
006000
000000
C00030
C00030
C00030
C00030
C00030
C00030
C00030
E00070
6000F0
7003B0
3C0F30
1FFC30
07F030
000030
000060
0001E0
C007C0
FFFF00
3FF800
ENDCHAR
STARTCHAR thorn
ENCODING 254
SWIDTH 787 0
DWIDTH 22 0
BBX 17 19 3 0
BITMAP
C00000
C00000
C00000
FFF800
FFFE00
C00700
C00380
C00180
C00180
C00180
C00180
C00380
C00700
FFFE00
FFF800
C00000
C00000
C00000
C00000
ENDCHAR
STARTCHAR ydieresis
ENCODING 255
SWIDTH 911 0
DWIDTH 26 0
BBX 20 23 2 0
BITMAP
030C00
030C00
000000
000000
C00030
C00030
C00030
C00030
C00030
C00030
C00030
E00070
6000F0
7003B0
3C0F30
1FFC30
07F030
000030
000060
0001E0
C007C0
FFFF00
3FF800
ENDCHAR
STARTCHAR Amacron
ENCODING 256
SWIDTH 812 0
DWIDTH 23 0
BBX 21 23 1 0
BITMAP
03FC00
03FC00
000000
000000
007000
007000
00D800
00D800
018C00
018C00
030600
030600
060300
060300
0C0180
0C0180
1FFFC0
3FFFC0
300060
700070
600030
E00038
C00018
ENDCHAR
STARTCHAR amacron
ENCODING 257
SWIDTH 888 0
DWIDTH 25 0
BBX 20 23 2 0
BITMAP
01FE00
01FE00
000000
000000
07FE00
3FFF80
3003E0
000060
000030
000030
000030
000FF0
03FFF0
1FF030
3C0030
700030
C00030
C00030
C00030
E000F0
7807F0
3FFF30
0FF030
ENDCHAR
STARTCHAR Abreve
ENCODING 258
SWIDTH 812 0
DWIDTH 23 0
BBX 21 24 1 0
BITMAP
030600
018C00
00F800
000000
000000
007000
007000
00D800
00D800
018C00
018C00
030600
030600
060300
060300
0C0180
0C0180
1FFFC0
3FFFC0
300060
700070
600030
E00038
C00018
ENDCHAR
STARTCHAR abreve
ENCODING 259
SWIDTH 888 0
DWIDTH 25 0
BBX 20 24 2 0
BITMAP
030600
018C00
00F800
000000
000000
07FE00
3FFF80
3003E0
000060
000030
000030
000030
000FF0
03FFF0
1FF030
3C0030
700030
C00030
C00030
C00030
E000F0
7807F0
3FFF30
0FF030
ENDCHAR
STARTCHAR Aogonek
ENCODING 260
SWIDTH 812 0
DWIDTH 23 0
BBX 23 24 1 -5
BITMAP
007000
007000
00D800
00D800
018C00
018C00
030600
030600
060300
060300
0C0180
0C0180
1FFFC0
3FFFC0
300060
700070
600030
E00038
C00018
000030
000060
000060
000062
00003C
ENDCHAR
STARTCHAR aogonek
ENCODING 261
SWIDTH 888 0
DWIDTH 25 0
BBX 22 24 2 -5
BITMAP
07FE00
3FFF80
3003E0
000060
000030
000030
000030
000FF0
03FFF0
1FF030
3C0030
700030
C00030
C00030
C00030
E000F0
7807F0
3FFF30
0FF030
000060
0000C0
0000C0
0000C4
000078
ENDCHAR
STARTCHAR Cacute
ENCODING 262
SWIDTH 869 0
DWIDTH 24 0
BBX 21 24 2 0
BITMAP
000180
000780
001E00
003000
000000
00FF80
07FFF0
1F0078
380008
700000
600000
E00000
C00000
C00000
C00000
C00000
C00000
E00000
600000
700000
380008
1F0078
07FFF0
00FF80
ENDCHAR
STARTCHAR cacute
ENCODING 263
SWIDTH 869 0
DWIDTH 24 0
BBX 21 24 2 0
BITMAP
000180
000780
001E00
003000
000000
00FF80
07FFF0
1F0078
380008
700000
600000
E00000
C00000
C00000
C00000
C00000
C00000
E00000
600000
700000
380008
1F0078
07FFF0
00FF80
ENDCHAR
STARTCHAR Ccircumflex
ENCODING 264
SWIDTH 869 0
DWIDTH 24 0
BBX 21 24 2 0
BITMAP
001800
007E00
01C700
030080
000000
00FF80
07FFF0
1F0078
380008
700000
600000
E00000
C00000
C00000
C00000
C00000
C00000
E00000
600000
700000
380008
1F0078
07FFF0
00FF80
ENDCHAR
STARTCHAR ccircumflex
ENCODING 265
SWIDTH 869 0
DWIDTH 24 0
BBX 21 24 2 0
BITMAP
001800
007E00
01C700
030080
000000
00FF80
07FFF0
1F0078
380008
700000
600000
E00000
C00000
C00000
C00000
C00000
C00000
E00000
600000
700000
380008
1F0078
07FFF0
00FF80
ENDCHAR
STARTCHAR Cdotaccent
ENCODING 266
SWIDTH 869 0
DWIDTH 24 0
BBX 21 23 2 0
BITMAP
001800
001800
000000
000000
00FF80
07FFF0
1F0078
380008
700000
600000
E00000
C00000
C00000
C00000
C00000
C00000
E00000
600000
700000
380008
1F0078
07FFF0
00FF80
ENDCHAR
STARTCHAR cdotaccent
ENCODING 267
SWIDTH 869 0
DWIDTH 24 0
BBX 21 23 2 0
BITMAP
001800
001800
000000
000000
00FF80
07FFF0
1F0078
380008
700000
600000
E00000
C00000
C00000
C00000
C00000
C00000
E00000
600000
700000
380008
1F0078
07FFF0
00FF80
ENDCHAR
STARTCHAR Ccaron
ENCODING 268
SWIDTH 869 0
DWIDTH 24 0
BBX 21 24 2 0
BITMAP
010080
03C700
007E00
001800
000000
00FF80
07FFF0
1F0078
380008
700000
600000
E00000
C00000
C00000
C00000
C00000
C00000
E00000
600000
700000
380008
1F0078
07FFF0
00FF80
ENDCHAR
STARTCHAR ccaron
ENCODING 269
SWIDTH 869 0
DWIDTH 24 0
BBX 21 24 2 0
BITMAP
010080
03C700
007E00
001800
000000
00FF80
07FFF0
1F0078
380008
700000
600000
E00000
C00000
C00000
C00000
C00000
C00000
E00000
600000
700000
380008
1F0078
07FFF0
00FF80
ENDCHAR
STARTCHAR Dcaron
ENCODING 270
SWIDTH 910 0
DWIDTH 25 0
BBX 21 24 3 0
BITMAP
100800
3C7000
07E000
018000
000000
FFFE00
FFFF80
C003C0
C000E0
C00070
C00030
C00018
C00018
C00018
C00018
C00018
C00018
C00018
C00030
C00070
C000E0
C003C0
FFFF80
FFFE00
ENDCHAR
STARTCHAR dcaron
ENCODING 271
SWIDTH 910 0
DWIDTH 25 0
BBX 21 24 3 0
BITMAP
100800
3C7000
07E000
018000
000000
FFFE00
FFFF80
C003C0
C000E0
C00070
C00030
C00018
C00018
C00018
C00018
C00018
C00018
C00018
C00030
C00070
C000E0
C003C0
FFFF80
FFFE00
ENDCHAR
STARTCHAR Dcroat
ENCODING 272
SWIDTH 910 0
DWIDTH 25 0
BBX 24 19 0 0
BITMAP
1FFF80
1FFFF0
1800F8
18001C
18000E
180006
180003
180003
180003
FFF803
FFF803
180003
180003
180006
18000E
18001C
180078
1FFFF0
1FFF80
ENDCHAR
STARTCHAR dcroat
ENCODING 273
SWIDTH 910 0
DWIDTH 25 0
BBX 24 19 0 0
BITMAP
1FFF80
1FFFF0
1800F8
18001C
18000E
180006
180003
180003
180003
FFF803
FFF803
180003
180003
180006
18000E
18001C
180078
1FFFF0
1FFF80
ENDCHAR
STARTCHAR Emacron
ENCODING 274
SWIDTH 754 0
DWIDTH 21 0
BBX 16 23 3 0
BITMAP
0FF0
0FF0
0000
0000
FFFF
FFFF
C000
C000
C000
C000
C000
C000
FFFE
FFFE
C000
C000
C000
C000
C000
C000
C000
FFFF
FFFF
ENDCHAR
STARTCHAR emacron
ENCODING 275
SWIDTH 910 0
DWIDTH 25 0
BBX 22 23 2 0
BITMAP
01FE00
01FE00
000000
000000
01FE00
07FFC0
1E01E0
380070
700038
600018
C0000C
C0000C
FFFFFC
FFFFFC
C00000
C00000
E00000
600000
700000
380000
1F0030
07FFF0
00FFC0
ENDCHAR
STARTCHAR Ebreve
ENCODING 276
SWIDTH 754 0
DWIDTH 21 0
BBX 16 24 3 0
BITMAP
1C30
0C70
03C0
0000
0000
FFFF
FFFF
C000
C000
C000
C000
C000
C000
FFFE
FFFE
C000
C000
C000
C000
C000
C000
C000
FFFF
FFFF
ENDCHAR
STARTCHAR ebreve
ENCODING 277
SWIDTH 910 0
DWIDTH 25 0
BBX 22 24 2 0
BITMAP
038600
018E00
00F800
000000
000000
01FE00
07FFC0
1E01E0
380070
700038
600018
C0000C
C0000C
FFFFFC
FFFFFC
C00000
C00000
E00000
600000
700000
380000
1F0030
07FFF0
00FFC0
ENDCHAR
STARTCHAR Edotaccent
ENCODING 278
SWIDTH 754 0
DWIDTH 21 0
BBX 16 23 3 0
BITMAP
0300
0300
0000
0000
FFFF
FFFF
C000
C000
C000
C000
C000
C000
FFFE
FFFE
C000
C000
C000
C000
C000
C000
C000
FFFF
FFFF
ENDCHAR
STARTCHAR edotaccent
ENCODING 279
SWIDTH 910 0
DWIDTH 25 0
BBX 22 23 2 0
BITMAP
006000
006000
000000
000000
01FE00
07FFC0
1E01E0
380070
700038
600018
C0000C
C0000C
FFFFFC
FFFFFC
C00000
C00000
E00000
600000
700000
380000
1F0030
07FFF0
00FFC0
ENDCHAR
STARTCHAR Eogonek
ENCODING 280
SWIDTH 754 0
DWIDTH 21 0
BBX 16 24 3 -5
BITMAP
FFFF
FFFF
C000
C000
C000
C000
C000
C000
FFFE
FFFE
C000
C000
C000
C000
C000
C000
C000
FFFF
FFFF
001C
0030
0030
0031
001E
ENDCHAR
STARTCHAR eogonek
ENCODING 281
SWIDTH 910 0
DWIDTH 25 0
BBX 22 23 2 -4
BITMAP
01FE00
07FFC0
1E01E0
380070
700038
600018
C0000C
C0000C
FFFFFC
FFFFFC
C00000
C00000
E00000
600000
700000
380000
1F0030
07FFF0
01FFE0
0000C0
000180
000188
0000F0
ENDCHAR
STARTCHAR Ecaron
ENCODING 282
SWIDTH 754 0
DWIDTH 21 0
BBX 16 24 3 0
BITMAP
1008
3C38
07E0
0180
0000
FFFF
FFFF
C000
C000
C000
C000
C000
C000
FFFE
FFFE
C000
C000
C000
C000
C000
C000
C000
FFFF
FFFF
ENDCHAR
STARTCHAR ecaron
ENCODING 283
SWIDTH 910 0
DWIDTH 25 0
BBX 22 24 2 0
BITMAP
020100
078E00
00FC00
003000
000000
01FE00
07FFC0
1E01E0
380070
700038
600018
C0000C
C0000C
FFFFFC
FFFFFC
C00000
C00000
E00000
600000
700000
380000
1F0030
07FFF0
00FFC0
ENDCHAR
STARTCHAR Gcircumflex
ENCODING 284
SWIDTH 910 0
DWIDTH 25 0
BBX 21 24 2 0
BITMAP
001800
007E00
01C780
030080
000000
00FF80
07FFF0
1F0078
3C0008
700000
600000
E00000
C00000
C00000
C00000
C00FF8
C00FF8
E00018
600018
700018
3C0018
1F0038
07FFF8
00FFC0
ENDCHAR
STARTCHAR gcircumflex
ENCODING 285
SWIDTH 910 0
DWIDTH 25 0
BBX 21 24 2 0
BITMAP
001800
007E00
01C780
030080
000000
00FF80
07FFF0
1F0078
3C0008
700000
600000
E00000
C00000
C00000
C00000
C00FF8
C00FF8
E00018
600018
700018
3C0018
1F0038
07FFF8
00FFC0
ENDCHAR
STARTCHAR Gbreve
ENCODING 286
SWIDTH 910 0
DWIDTH 25 0
BBX 21 24 2 0
BITMAP
01C300
00C300
003C00
000000
000000
00FF80
07FFF0
1F0078
3C0008
700000
600000
E00000
C00000
C00000
C00000
C00FF8
C00FF8
E00018
600018
700018
3C0018
1F0038
07FFF8
00FFC0
ENDCHAR
STARTCHAR gbreve
ENCODING 287
SWIDTH 910 0
DWIDTH 25 0
BBX 21 24 2 0
BITMAP
01C300
00C300
003C00
000000
000000
00FF80
07FFF0
1F0078
3C0008
700000
600000
E00000
C00000
C00000
C00000
C00FF8
C00FF8
E00018
600018
700018
3C0018
1F0038
07FFF8
00FFC0
ENDCHAR
STARTCHAR Gdotaccent
ENCODING 288
SWIDTH 910 0
DWIDTH 25 0
BBX 21 23 2 0
BITMAP
003000
003000
000000
000000
00FF80
07FFF0
1F0078
3C0008
700000
600000
E00000
C00000
C00000
C00000
C00FF8
C00FF8
E00018
600018
700018
3C0018
1F0038
07FFF8
00FFC0
ENDCHAR
STARTCHAR gdotaccent
ENCODING 289
SWIDTH 910 0
DWIDTH 25 0
BBX 21 23 2 0
BITMAP
003000
003000
000000
000000
00FF80
07FFF0
1F0078
3C0008
700000
600000
E00000
C00000
C00000
C00000
C00FF8
C00FF8
E00018
600018
700018
3C0018
1F0038
07FFF8
00FFC0
ENDCHAR
STARTCHAR Gcommaaccent
ENCODING 290
SWIDTH 910 0
DWIDTH 25 0
BBX 21 25 2 -6
BITMAP
00FF80
07FFF0
1F0078
3C0008
700000
600000
E00000
C00000
C00000
C00000
C00FF8
C00FF8
E00018
600018
700018
3C0018
1F0038
07FFF8
00FFC0
000000
000000
001C00
001800
001800
001800
ENDCHAR
STARTCHAR gcommaaccent
ENCODING 291
SWIDTH 910 0
DWIDTH 25 0
BBX 21 25 2 -6
BITMAP
00FF80
07FFF0
1F0078
3C0008
700000
600000
E00000
C00000
C00000
C00000
C00FF8
C00FF8
E00018
600018
700018
3C0018
1F0038
07FFF8
00FFC0
000000
000000
001C00
001800
001800
001800
ENDCHAR
STARTCHAR Hcircumflex
ENCODING 292
SWIDTH 949 0
DWIDTH 27 0
BBX 20 24 3 0
BITMAP
006000
00F800
038E00
060300
000000
C00030
C00030
C00030
C00030
C00030
C00030
C00030
C00030
FFFFF0
FFFFF0
C00030
C00030
C00030
C00030
C00030
C00030
C00030
C00030
C00030
ENDCHAR
STARTCHAR hcircumflex
ENCODING 293
SWIDTH 949 0
DWIDTH 27 0
BBX 20 24 3 0
BITMAP
006000
00F800
038E00
060300
000000
C00030
C00030
C00030
C00030
C00030
C00030
C00030
C00030
FFFFF0
FFFFF0
C00030
C00030
C00030
C00030
C00030
C00030
C00030
C00030
C00030
ENDCHAR
STARTCHAR Hbar
ENCODING 294
SWIDTH 949 0
DWIDTH 27 0
BBX 24 19 1 0
BITMAP
30000C
30000C
30000C
30000C
FFFFFF
FFFFFF
30000C
30000C
3FFFFC
3FFFFC
30000C
30000C
30000C
30000C
30000C
30000C
30000C
30000C
30000C
ENDCHAR
STARTCHAR hbar
ENCODING 295
SWIDTH 949 0
DWIDTH 27 0
BBX 24 19 1 0
BITMAP
30000C
30000C
30000C
30000C
FFFFFF
FFFFFF
30000C
30000C
3FFFFC
3FFFFC
30000C
30000C
30000C
30000C
30000C
30000C
30000C
30000C
30000C
ENDCHAR
STARTCHAR Itilde
ENCODING 296
SWIDTH 287 0
DWIDTH 8 0
BBX 10 24 0 0
BITMAP
7040
8880
8780
0000
0000
1800
1800
1800
1800
1800
1800
1800
1800
1800
1800
1800
1800
1800
1800
1800
1800
1800
1800
1800
ENDCHAR
STARTCHAR itilde
ENCODING 297
SWIDTH 287 0
DWIDTH 8 0
BBX 10 24 0 0
BITMAP
7040
8880
8780
0000
0000
1800
1800
1800
1800
1800
1800
1800
1800
1800
1800
1800
1800
1800
1800
1800
1800
1800
1800
1800
ENDCHAR
STARTCHAR Imacron
ENCODING 298
SWIDTH 287 0
DWIDTH 8 0
BBX 8 23 0 0
BITMAP
FF
FF
00
00
18
18
18
18
18
18
18
18
18
18
18
18
18
18
18
18
18
18
18
ENDCHAR
STARTCHAR imacron
ENCODING 299
SWIDTH 287 0
DWIDTH 8 0
BBX 8 23 0 0
BITMAP
FF
FF
00
00
18
18
18
18
18
18
18
18
18
18
18
18
18
18
18
18
18
18
18
ENDCHAR
STARTCHAR Ibreve
ENCODING 300
SWIDTH 287 0
DWIDTH 8 0
BBX 9 24 0 0
BITMAP
C380
E300
3E00
0000
0000
1800
1800
1800
1800
1800
1800
1800
1800
1800
1800
1800
1800
1800
1800
1800
1800
1800
1800
1800
ENDCHAR
STARTCHAR ibreve
ENCODING 301
SWIDTH 287 0
DWIDTH 8 0
BBX 9 24 0 0
BITMAP
C380
E300
3E00
0000
0000
1800
1800
1800
1800
1800
1800
1800
1800
1800
1800
1800
1800
1800
1800
1800
1800
1800
1800
1800
ENDCHAR
STARTCHAR Iogonek
ENCODING 302
SWIDTH 287 0
DWIDTH 8 0
BBX 6 24 0 -5
BITMAP
18
18
18
18
18
18
18
18
18
18
18
18
18
18
18
18
18
18
18
30
60
C0
C4
78
ENDCHAR
STARTCHAR iogonek
ENCODING 303
SWIDTH 287 0
DWIDTH 8 0
BBX 6 24 0 -5
BITMAP
18
18
18
18
18
18
18
18
18
18
18
18
18
18
18
18
18
18
18
30
60
C0
C4
78
ENDCHAR
STARTCHAR Idotaccent
ENCODING 304
SWIDTH 287 0
DWIDTH 8 0
BBX 2 23 3 0
BITMAP
C0
C0
00
00
C0
C0
C0
C0
C0
C0
C0
C0
C0
C0
C0
C0
C0
C0
C0
C0
C0
C0
C0
ENDCHAR
STARTCHAR dotlessi
ENCODING 305
SWIDTH 287 0
DWIDTH 8 0
BBX 2 19 3 0
BITMAP
C0
C0
C0
C0
C0
C0
C0
C0
C0
C0
C0
C0
C0
C0
C0
C0
C0
C0
C0
ENDCHAR
STARTCHAR IJ
ENCODING 306
SWIDTH 877 0
DWIDTH 25 0
BBX 18 19 3 0
BITMAP
C000C0
C000C0
C000C0
C000C0
C000C0
C000C0
C000C0
C000C0
C000C0
C000C0
C000C0
C000C0
C000C0
C000C0
C000C0
C001C0
C60780
C7FF00
C1FC00
ENDCHAR
STARTCHAR ij
ENCODING 307
SWIDTH 877 0
DWIDTH 25 0
BBX 18 19 3 0
BITMAP
C000C0
C000C0
C000C0
C000C0
C000C0
C000C0
C000C0
C000C0
C000C0
C000C0
C000C0
C000C0
C000C0
C000C0
C000C0
C001C0
C60780
C7FF00
C1FC00
ENDCHAR
STARTCHAR Jcircumflex
ENCODING 308
SWIDTH 590 0
DWIDTH 17 0
BBX 18 24 0 0
BITMAP
000C00
003E00
00E380
018040
000000
001800
001800
001800
001800
001800
001800
001800
001800
001800
001800
001800
001800
001800
001800
001800
003000
C0F000
FFE000
3F8000
ENDCHAR
STARTCHAR jcircumflex
ENCODING 309
SWIDTH 590 0
DWIDTH 17 0
BBX 18 24 0 0
BITMAP
000C00
003E00
00E380
018040
000000
001800
001800
001800
001800
001800
001800
001800
001800
001800
001800
001800
001800
001800
001800
001800
003000
C0F000
FFE000
3F8000
ENDCHAR
STARTCHAR Kcommaaccent
ENCODING 310
SWIDTH 806 0
DWIDTH 23 0
BBX 19 25 3 -6
BITMAP
C001E0
C00700
C00E00
C03800
C07000
C1C000
C38000
CE0000
DC0000
F80000
CE0000
C70000
C1C000
C0E000
C07800
C01C00
C00F00
C00380
C001E0
000000
000000
01C000
018000
018000
018000
ENDCHAR
STARTCHAR kcommaaccent
ENCODING 311
SWIDTH 867 0
DWIDTH 24 0
BBX 19 25 3 -6
BITMAP
C000C0
C000C0
C00180
C00180
C00300
C00600
C01C00
C0F800
FFC000
FFF000
C07C00
C00E00
C00700
C00380
C001C0
C000C0
C000E0
C00060
C00060
000000
000000
00E000
00C000
00C000
00C000
ENDCHAR
STARTCHAR kgreenlandic
ENCODING 312
SWIDTH 867 0
DWIDTH 24 0
BBX 19 19 3 0
BITMAP
C000C0
C000C0
C00180
C00180
C00300
C00600
C01C00
C0F800
FFC000
FFF000
C07C00
C00E00
C00700
C00380
C001C0
C000C0
C000E0
C00060
C00060
ENDCHAR
STARTCHAR Lacute
ENCODING 313
SWIDTH 701 0
DWIDTH 20 0
BBX 15 24 3 0
BITMAP
0400
1E00
7000
8000
0000
C000
C000
C000
C000
C000
C000
C000
C000
C000
C000
C000
C000
C000
C000
C000
C000
C000
FFFE
FFFE
ENDCHAR
STARTCHAR lacute
ENCODING 314
SWIDTH 709 0
DWIDTH 20 0
BBX 16 24 3 0
BITMAP
0400
1E00
7000
8000
0000
C000
C000
C000
C000
C000
C000
C000
C000
C000
C000
C000
C000
C000
C000
C000
E000
7000
3FFF
1FFF
ENDCHAR
STARTCHAR Lcommaaccent
ENCODING 315
SWIDTH 701 0
DWIDTH 20 0
BBX 15 25 3 -6
BITMAP
C000
C000
C000
C000
C000
C000
C000
C000
C000
C000
C000
C000
C000
C000
C000
C000
C000
FFFE
FFFE
0000
0000
01C0
0180
0180
0100
ENDCHAR
STARTCHAR lcommaaccent
ENCODING 316
SWIDTH 709 0
DWIDTH 20 0
BBX 16 25 3 -6
BITMAP
C000
C000
C000
C000
C000
C000
C000
C000
C000
C000
C000
C000
C000
C000
C000
E000
7000
3FFF
1FFF
0000
0000
00C0
00C0
0180
0180
ENDCHAR
STARTCHAR Lcaron
ENCODING 317
SWIDTH 701 0
DWIDTH 20 0
BBX 15 19 3 0
BITMAP
C030
C030
C020
C060
C060
C000
C000
C000
C000
C000
C000
C000
C000
C000
C000
C000
C000
FFFE
FFFE
ENDCHAR
STARTCHAR lcaron
ENCODING 318
SWIDTH 709 0
DWIDTH 20 0
BBX 16 19 3 0
BITMAP
C030
C030
C020
C020
C060
C000
C000
C000
C000
C000
C000
C000
C000
C000
C000
E000
7000
3FFF
1FFF
ENDCHAR
STARTCHAR Ldot
ENCODING 319
SWIDTH 701 0
DWIDTH 20 0
BBX 15 19 3 0
BITMAP
C000
C000
C000
C000
C000
C000
C000
C000
C060
C060
C060
C000
C000
C000
C000
C000
C000
FFFE
FFFE
ENDCHAR
STARTCHAR ldotaccent
ENCODING 320
SWIDTH 709 0
DWIDTH 20 0
BBX 16 19 3 0
BITMAP
C000
C000
C000
C000
C000
C000
C000
C000
C060
C060
C060
C000
C000
C000
C000
E000
7000
3FFF
1FFF
ENDCHAR
STARTCHAR Lslash
ENCODING 321
SWIDTH 701 0
DWIDTH 20 0
BBX 18 19 0 0
BITMAP
180000
180000
180000
180000
180000
180000
186000
19E000
1F0000
3C0000
F80000
D80000
180000
180000
180000
180000
180000
1FFFC0
1FFFC0
ENDCHAR
STARTCHAR lslash
ENCODING 322
SWIDTH 709 0
DWIDTH 20 0
BBX 19 19 0 0
BITMAP
180000
180000
180000
180000
180000
180000
186000
19E000
1F0000
3C0000
F80000
D80000
180000
180000
180000
1C0000
0E0000
0FFFE0
03FFE0
ENDCHAR
STARTCHAR Nacute
ENCODING 323
SWIDTH 936 0
DWIDTH 26 0
BBX 20 24 3 0
BITMAP
000200
000F00
003800
006000
000000
E00030
F00030
F80030
DC0030
CC0030
C60030
C30030
C18030
C0C030
C06030
C03030
C01830
C00C30
C00630
C00730
C003B0
C001F0
C000F0
C00070
ENDCHAR
STARTCHAR nacute
ENCODING 324
SWIDTH 933 0
DWIDTH 26 0
BBX 20 24 3 0
BITMAP
000200
001E00
007800
00C000
000000
C07F00
C3FFC0
CF81E0
FC0060
F00030
E00030
C00030
C00030
C00030
C00030
C00030
C00030
C00030
C00030
C00030
C00030
C00030
C00030
C00030
ENDCHAR
STARTCHAR Ncommaaccent
ENCODING 325
SWIDTH 936 0
DWIDTH 26 0
BBX 20 25 3 -6
BITMAP
E00030
F00030
F80030
DC0030
CC0030
C60030
C30030
C18030
C0C030
C06030
C03030
C01830
C00C30
C00630
C00730
C003B0
C001F0
C000F0
C00070
000000
000000
007000
006000
006000
006000
ENDCHAR
STARTCHAR ncommaaccent
ENCODING 326
SWIDTH 933 0
DWIDTH 26 0
BBX 20 25 3 -6
BITMAP
C07F00
C3FFC0
CF81E0
FC0060
F00030
E00030
C00030
C00030
C00030
C00030
C00030
C00030
C00030
C00030
C00030
C00030
C00030
C00030
C00030
000000
000000
007000
006000
006000
006000
ENDCHAR
STARTCHAR Ncaron
ENCODING 327
SWIDTH 936 0
DWIDTH 26 0
BBX 20 24 3 0
BITMAP
040200
038F00
01F800
006000
000000
E00030
F00030
F80030
DC0030
CC0030
C60030
C30030
C18030
C0C030
C06030
C03030
C01830
C00C30
C00630
C00730
C003B0
C001F0
C000F0
C00070
ENDCHAR
STARTCHAR ncaron
ENCODING 328
SWIDTH 933 0
DWIDTH 26 0
BBX 20 24 3 0
BITMAP
040200
0F1C00
01F800
006000
000000
C07F00
C3FFC0
CF81E0
FC0060
F00030
E00030
C00030
C00030
C00030
C00030
C00030
C00030
C00030
C00030
C00030
C00030
C00030
C00030
C00030
ENDCHAR
STARTCHAR napostrophe
ENCODING 329
SWIDTH 1025 0
DWIDTH 29 0
BBX 26 19 0 0
BITMAP
6303FC00
630FFE00
433C0700
C3F00180
C3C00180
030001C0
030000C0
030000C0
030000C0
030000C0
030000C0
030000C0
030000C0
030000C0
030000C0
030000C0
030000C0
030000C0
030000C0
ENDCHAR
STARTCHAR Eng
ENCODING 330
SWIDTH 936 0
DWIDTH 26 0
BBX 20 19 3 0
BITMAP
E00030
F00030
F80030
CE0030
C70030
C38030
C0C030
C07030
C03830
C00C30
C00730
C003B0
C001F0
C00070
C00030
C00070
C080E0
C0FFC0
C03F00
ENDCHAR
STARTCHAR eng
ENCODING 331
SWIDTH 933 0
DWIDTH 26 0
BBX 20 19 3 0
BITMAP
C07F00
C3FFC0
CF80E0
FC0060
F00030
E00030
C00030
C00030
C00030
C00030
C00030
C00030
C00030
C00030
C00030
C00070
C0C0E0
C0FFC0
C03F80
ENDCHAR
STARTCHAR Omacron
ENCODING 332
SWIDTH 983 0
DWIDTH 28 0
BBX 24 23 2 0
BITMAP
00FF00
00FF00
000000
000000
00FF80
07FFE0
1F00F8
38001C
70000E
600006
E00007
C00003
C00003
C00003
C00003
C00003
E00007
600006
70000E
38001C
1F00F8
07FFE0
01FF80
ENDCHAR
STARTCHAR omacron
ENCODING 333
SWIDTH 983 0
DWIDTH 28 0
BBX 24 23 2 0
BITMAP
00FF00
00FF00
000000
000000
00FF80
07FFE0
1F00F8
38001C
70000E
600006
E00007
C00003
C00003
C00003
C00003
C00003
E00007
600006
70000E
38001C
1F00F8
07FFE0
01FF80
ENDCHAR
STARTCHAR Obreve
ENCODING 334
SWIDTH 983 0
DWIDTH 28 0
BBX 24 24 2 0
BITMAP
01C300
00C700
007C00
000000
000000
00FF80
07FFE0
1F00F8
38001C
70000E
600006
E00007
C00003
C00003
C00003
C00003
C00003
E00007
600006
70000E
38001C
1F00F8
07FFE0
01FF80
ENDCHAR
STARTCHAR obreve
ENCODING 335
SWIDTH 983 0
DWIDTH 28 0
BBX 24 24 2 0
BITMAP
01C300
00C700
007C00
000000
000000
00FF80
07FFE0
1F00F8
38001C
70000E
600006
E00007
C00003
C00003
C00003
C00003
C00003
E00007
600006
70000E
38001C
1F00F8
07FFE0
01FF80
ENDCHAR
STARTCHAR Ohungarumlaut
ENCODING 336
SWIDTH 983 0
DWIDTH 28 0
BBX 24 24 2 0
BITMAP
001080
0039C0
006300
00C600
000000
00FF80
07FFE0
1F00F8
38001C
70000E
600006
E00007
C00003
C00003
C00003
C00003
C00003
E00007
600006
70000E
38001C
1F00F8
07FFE0
01FF80
ENDCHAR
STARTCHAR ohungarumlaut
ENCODING 337
SWIDTH 983 0
DWIDTH 28 0
BBX 24 24 2 0
BITMAP
001080
0039C0
006300
00C600
000000
00FF80
07FFE0
1F00F8
38001C
70000E
600006
E00007
C00003
C00003
C00003
C00003
C00003
E00007
600006
70000E
38001C
1F00F8
07FFE0
01FF80
ENDCHAR
STARTCHAR OE
ENCODING 338
SWIDTH 1338 0
DWIDTH 37 0
BBX 34 19 1 0
BITMAP
00FFFFFFC0
07FFFFFFC0
1F00300000
3800300000
7000300000
6000300000
E000300000
C000300000
C0003FFF80
C0003FFF80
C000300000
C000300000
E000300000
6000300000
7000300000
3800300000
1F00300000
07FFFFFFC0
00FFFFFFC0
ENDCHAR
STARTCHAR oe
ENCODING 339
SWIDTH 1688 0
DWIDTH 47 0
BBX 44 19 2 0
BITMAP
00FF0007F800
07FFE01FFF00
1F00F8780780
38001CE001C0
70000EC000E0
600007800060
E00007000030
C00003000030
C00003FFFFF0
C00003FFFFF0
C00003000000
C00003000000
E00007800000
600007800000
70000FC00000
38001CE00000
1F00F87C00C0
07FFE01FFFC0
00FF0007FF00
ENDCHAR
STARTCHAR Racute
ENCODING 340
SWIDTH 833 0
DWIDTH 23 0
BBX 19 24 3 0
BITMAP
001800
007800
01E000
030000
000000
FFF800
FFFE00
C00700
C00380
C00180
C00180
C00180
C00380
C00700
FFFE00
FFF800
C01800
C00C00
C00E00
C00600
C00300
C00180
C001C0
C000E0
ENDCHAR
STARTCHAR racute
ENCODING 341
SWIDTH 609 0
DWIDTH 17 0
BBX 14 24 3 0
BITMAP
0020
00F0
0380
0600
0000
C0FC
C3FC
CF00
DC00
F000
E000
C000
C000
C000
C000
C000
C000
C000
C000
C000
C000
C000
C000
C000
ENDCHAR
STARTCHAR Rcommaaccent
ENCODING 342
SWIDTH 833 0
DWIDTH 23 0
BBX 19 25 3 -6
BITMAP
FFF800
FFFE00
C00700
C00380
C00180
C00180
C00180
C00380
C00700
FFFE00
FFF800
C01800
C00C00
C00E00
C00600
C00300
C00180
C001C0
C000C0
000020
000000
00C000
00C000
008000
018000
ENDCHAR
STARTCHAR rcommaaccent
ENCODING 343
SWIDTH 609 0
DWIDTH 17 0
BBX 14 25 3 -6
BITMAP
C0FC
C3FC
CF00
DC00
F000
E000
C000
C000
C000
C000
C000
C000
C000
C000
C000
C000
C000
C000
C000
0000
0000
E000
C000
C000
C000
ENDCHAR
STARTCHAR Rcaron
ENCODING 344
SWIDTH 833 0
DWIDTH 23 0
BBX 19 24 3 0
BITMAP
100800
3C7000
07E000
018000
000000
FFF800
FFFE00
C00700
C00380
C00180
C00180
C00180
C00380
C00700
FFFE00
FFF800
C01800
C00C00
C00E00
C00600
C00300
C00180
C001C0
C000E0
ENDCHAR
STARTCHAR rcaron
ENCODING 345
SWIDTH 609 0
DWIDTH 17 0
BBX 14 24 3 0
BITMAP
6030
38E0
0F80
0200
0000
C0FC
C3FC
CF00
DC00
F000
E000
C000
C000
C000
C000
C000
C000
C000
C000
C000
C000
C000
C000
C000
ENDCHAR
STARTCHAR Sacute
ENCODING 346
SWIDTH 787 0
DWIDTH 22 0
BBX 18 24 2 0
BITMAP
000400
003C00
00F000
018000
000000
0FFC00
3FFF00
700300
E00000
C00000
C00000
E00000
7C0000
1FC000
03FC00
003F00
000380
0001C0
0000C0
0000C0
0001C0
C00780
FFFF00
3FF800
ENDCHAR
STARTCHAR sacute
ENCODING 347
SWIDTH 787 0
DWIDTH 22 0
BBX 18 24 2 0
BITMAP
000400
003C00
00F000
018000
000000
0FFC00
3FFF00
700300
E00000
C00000
C00000
E00000
7C0000
1FC000
03FC00
003F00
000380
0001C0
0000C0
0000C0
0001C0
C00780
FFFF00
3FF800
ENDCHAR
STARTCHAR Scircumflex
ENCODING 348
SWIDTH 787 0
DWIDTH 22 0
BBX 18 24 2 0
BITMAP
00C000
03F000
0E1C00
180400
000000
0FFC00
3FFF00
700300
E00000
C00000
C00000
E00000
7C0000
1FC000
03FC00
003F00
000380
0001C0
0000C0
0000C0
0001C0
C00780
FFFF00
3FF800
ENDCHAR
STARTCHAR scircumflex
ENCODING 349
SWIDTH 787 0
DWIDTH 22 0
BBX 18 24 2 0
BITMAP
00C000
03F000
0E1C00
180400
000000
0FFC00
3FFF00
700300
E00000
C00000
C00000
E00000
7C0000
1FC000
03FC00
003F00
000380
0001C0
0000C0
0000C0
0001C0
C00780
FFFF00
3FF800
ENDCHAR
STARTCHAR Scedilla
ENCODING 350
SWIDTH 787 0
DWIDTH 22 0
BBX 18 24 2 -5
BITMAP
0FFC00
3FFF00
700300
E00000
C00000
C00000
E00000
780000
1F8000
03F800
003E00
000780
0001C0
0000C0
0000C0
0001C0
C00780
FFFF00
3FF800
008000
01E000
001000
021000
01E000
ENDCHAR
STARTCHAR scedilla
ENCODING 351
SWIDTH 787 0
DWIDTH 22 0
BBX 18 24 2 -5
BITMAP
0FFC00
3FFF00
700300
E00000
C00000
C00000
E00000
780000
1F8000
03F800
003E00
000780
0001C0
0000C0
0000C0
0001C0
C00780
FFFF00
3FF800
008000
01E000
001000
021000
01E000
ENDCHAR
STARTCHAR Scaron
ENCODING 352
SWIDTH 787 0
DWIDTH 22 0
BBX 18 24 2 0
BITMAP
080400
1E1C00
03F000
00C000
000000
0FFC00
3FFF00
700300
E00000
C00000
C00000
E00000
7C0000
1FC000
03FC00
003F00
000380
0001C0
0000C0
0000C0
0001C0
C00780
FFFF00
3FF800
ENDCHAR
STARTCHAR scaron
ENCODING 353
SWIDTH 787 0
DWIDTH 22 0
BBX 18 24 2 0
BITMAP
080400
1E1C00
03F000
00C000
000000
0FFC00
3FFF00
700300
E00000
C00000
C00000
E00000
7C0000
1FC000
03FC00
003F00
000380
0001C0
0000C0
0000C0
0001C0
C00780
FFFF00
3FF800
ENDCHAR
STARTCHAR Tcommaaccent
ENCODING 354
SWIDTH 708 0
DWIDTH 20 0
BBX 20 25 0 -6
BITMAP
FFFFF0
FFFFF0
006000
006000
006000
006000
006000
006000
006000
006000
006000
006000
006000
006000
006000
006000
006000
006000
006000
000000
000000
007000
006000
006000
004000
ENDCHAR
STARTCHAR tcommaaccent
ENCODING 355
SWIDTH 708 0
DWIDTH 20 0
BBX 20 25 0 -6
BITMAP
FFFFF0
FFFFF0
006000
006000
006000
006000
006000
006000
006000
006000
006000
006000
006000
006000
006000
006000
006000
006000
006000
000000
000000
007000
006000
006000
004000
ENDCHAR
STARTCHAR Tcaron
ENCODING 356
SWIDTH 708 0
DWIDTH 20 0
BBX 20 24 0 0
BITMAP
040200
070F00
01F800
006000
000000
FFFFF0
FFFFF0
006000
006000
006000
006000
006000
006000
006000
006000
006000
006000
006000
006000
006000
006000
006000
006000
006000
ENDCHAR
STARTCHAR tcaron
ENCODING 357
SWIDTH 708 0
DWIDTH 20 0
BBX 20 24 0 0
BITMAP
040200
070F00
01F800
006000
000000
FFFFF0
FFFFF0
006000
006000
006000
006000
006000
006000
006000
006000
006000
006000
006000
006000
006000
006000
006000
006000
006000
ENDCHAR
STARTCHAR Tbar
ENCODING 358
SWIDTH 708 0
DWIDTH 20 0
BBX 20 19 0 0
BITMAP
FFFFF0
FFFFF0
006000
006000
006000
006000
006000
3FFFC0
3FFFC0
006000
006000
006000
006000
006000
006000
006000
006000
006000
006000
ENDCHAR
STARTCHAR tbar
ENCODING 359
SWIDTH 708 0
DWIDTH 20 0
BBX 20 19 0 0
BITMAP
FFFFF0
FFFFF0
006000
006000
006000
006000
006000
3FFFC0
3FFFC0
006000
006000
006000
006000
006000
006000
006000
006000
006000
006000
ENDCHAR
STARTCHAR Utilde
ENCODING 360
SWIDTH 891 0
DWIDTH 25 0
BBX 19 24 3 0
BITMAP
03C200
066200
041C00
000000
000000
C00060
C00060
C00060
C00060
C00060
C00060
C00060
C00060
C00060
C00060
C00060
C00060
C00060
C00060
C00060
6000C0
7803C0
1FFF00
07FC00
ENDCHAR
STARTCHAR utilde
ENCODING 361
SWIDTH 931 0
DWIDTH 26 0
BBX 20 24 3 0
BITMAP
01C100
022200
021E00
000000
000000
C00030
C00030
C00030
C00030
C00030
C00030
C00030
C00030
C00030
C00030
C00030
C00030
C00030
C00070
C000F0
6003F0
701F30
3FFC30
0FE030
ENDCHAR
STARTCHAR Umacron
ENCODING 362
SWIDTH 891 0
DWIDTH 25 0
BBX 19 23 3 0
BITMAP
03FC00
03FC00
000000
000000
C00060
C00060
C00060
C00060
C00060
C00060
C00060
C00060
C00060
C00060
C00060
C00060
C00060
C00060
C00060
6000C0
7803C0
1FFF00
07FC00
ENDCHAR
STARTCHAR umacron
ENCODING 363
SWIDTH 931 0
DWIDTH 26 0
BBX 20 23 3 0
BITMAP
01FE00
01FE00
000000
000000
C00030
C00030
C00030
C00030
C00030
C00030
C00030
C00030
C00030
C00030
C00030
C00030
C00030
C00070
C000F0
6003F0
701F30
3FFC30
0FE030
ENDCHAR
STARTCHAR Ubreve
ENCODING 364
SWIDTH 891 0
DWIDTH 25 0
BBX 19 24 3 0
BITMAP
060C00
031800
01F000
000000
000000
C00060
C00060
C00060
C00060
C00060
C00060
C00060
C00060
C00060
C00060
C00060
C00060
C00060
C00060
C00060
6000C0
7803C0
1FFF00
07FC00
ENDCHAR
STARTCHAR ubreve
ENCODING 365
SWIDTH 931 0
DWIDTH 26 0
BBX 20 24 3 0
BITMAP
030E00
038C00
00F800
000000
000000
C00030
C00030
C00030
C00030
C00030
C00030
C00030
C00030
C00030
C00030
C00030
C00030
C00030
C00070
C000F0
6003F0
701F30
3FFC30
0FE030
ENDCHAR
STARTCHAR Uring
ENCODING 366
SWIDTH 891 0
DWIDTH 25 0
BBX 19 25 3 0
BITMAP
01F000
031800
031800
031800
01F000
000000
C00060
C00060
C00060
C00060
C00060
C00060
C00060
C00060
C00060
C00060
C00060
C00060
C00060
C00060
C00060
6000C0
7803C0
1FFF00
07FC00
ENDCHAR
STARTCHAR uring
ENCODING 367
SWIDTH 931 0
DWIDTH 26 0
BBX 20 25 3 0
BITMAP
00F800
018C00
018C00
018C00
00F800
000000
C00030
C00030
C00030
C00030
C00030
C00030
C00030
C00030
C00030
C00030
C00030
C00030
C00030
C00070
C000F0
6003F0
701F30
3FFC30
0FE030
ENDCHAR
STARTCHAR Uhungarumlaut
ENCODING 368
SWIDTH 891 0
DWIDTH 25 0
BBX 19 24 3 0
BITMAP
004200
00E700
018C00
031800
000000
C00060
C00060
C00060
C00060
C00060
C00060
C00060
C00060
C00060
C00060
C00060
C00060
C00060
C00060
C00060
6000C0
7803C0
1FFF00
07FC00
ENDCHAR
STARTCHAR uhungarumlaut
ENCODING 369
SWIDTH 931 0
DWIDTH 26 0
BBX 20 24 3 0
BITMAP
002100
007380
00C600
018C00
000000
C00030
C00030
C00030
C00030
C00030
C00030
C00030
C00030
C00030
C00030
C00030
C00030
C00030
C00070
C000F0
6003F0
701F30
3FFC30
0FE030
ENDCHAR
STARTCHAR Uogonek
ENCODING 370
SWIDTH 891 0
DWIDTH 25 0
BBX 19 24 3 -5
BITMAP
C00060
C00060
C00060
C00060
C00060
C00060
C00060
C00060
C00060
C00060
C00060
C00060
C00060
C00060
C00060
6000C0
7807C0
1FFF00
07FC00
00C000
018000
018000
018800
00F000
ENDCHAR
STARTCHAR uogonek
ENCODING 371
SWIDTH 931 0
DWIDTH 26 0
BBX 22 24 3 -5
BITMAP
C00030
C00030
C00030
C00030
C00030
C00030
C00030
C00030
C00030
C00030
C00030
C00030
C00030
C00070
C000F0
6003F0
701F30
3FFC30
0FE030
000060
0000C0
0000C0
0000C4
000078
ENDCHAR
STARTCHAR Wcircumflex
ENCODING 372
SWIDTH 1266 0
DWIDTH 35 0
BBX 33 24 1 0
BITMAP
0000C00000
0003F00000
000E380000
0018040000
0000000000
C001C00180
C001C00180
6003600300
6003600300
6002200300
3006300600
3006300600
180C180C00
180C180C00
180C080C00
0C180C1800
0C180C1800
0430063000
0630063000
0630063000
0360036000
0360036000
0140014000
01C001C000
ENDCHAR
STARTCHAR wcircumflex
ENCODING 373
SWIDTH 1266 0
DWIDTH 35 0
BBX 33 24 1 0
BITMAP
0000C00000
0003F00000
000E380000
0018040000
0000000000
C001C00180
C001C00180
6003600300
6003600300
6002200300
3006300600
3006300600
180C180C00
180C180C00
180C080C00
0C180C1800
0C180C1800
0430063000
0630063000
0630063000
0360036000
0360036000
0140014000
01C001C000
ENDCHAR
STARTCHAR Ycircumflex
ENCODING 374
SWIDTH 763 0
DWIDTH 21 0
BBX 20 24 1 0
BITMAP
006000
01F800
071C00
0C0200
000000
E00070
7000E0
3801C0
180180
0C0300
060600
070E00
039C00
019800
00F000
006000
006000
006000
006000
006000
006000
006000
006000
006000
ENDCHAR
STARTCHAR ycircumflex
ENCODING 375
SWIDTH 911 0
DWIDTH 26 0
BBX 20 24 2 0
BITMAP
002000
00F800
038E00
060300
000000
C00030
C00030
C00030
C00030
C00030
C00030
C00030
E00070
6000F0
7003B0
3C0F30
1FFC30
07F030
000030
000060
0001E0
C007C0
FFFF00
3FF800
ENDCHAR
STARTCHAR Ydieresis
ENCODING 376
SWIDTH 763 0
DWIDTH 21 0
BBX 20 23 1 0
BITMAP
030C00
030C00
000000
000000
E00070
7000E0
3801C0
180180
0C0300
060600
070E00
039C00
019800
00F000
006000
006000
006000
006000
006000
006000
006000
006000
006000
ENDCHAR
STARTCHAR Zacute
ENCODING 377
SWIDTH 728 0
DWIDTH 20 0
BBX 16 24 2 0
BITMAP
000C
003C
00E0
0180
0000
FFFF
FFFF
0006
000C
0018
0030
0060
00E0
01C0
0180
0300
0600
0C00
1800
3800
7000
6000
FFFF
FFFF
ENDCHAR
STARTCHAR zacute
ENCODING 378
SWIDTH 728 0
DWIDTH 20 0
BBX 16 24 2 0
BITMAP
000C
003C
00E0
0180
0000
FFFF
FFFF
0006
000C
0018
0030
0060
00E0
01C0
0180
0300
0600
0C00
1800
3800
7000
6000
FFFF
FFFF
ENDCHAR
STARTCHAR Zdotaccent
ENCODING 379
SWIDTH 728 0
DWIDTH 20 0
BBX 16 23 2 0
BITMAP
0180
0180
0000
0000
FFFF
FFFF
0006
000C
0018
0030
0060
00E0
01C0
0180
0300
0600
0C00
1800
3800
7000
6000
FFFF
FFFF
ENDCHAR
STARTCHAR zdotaccent
ENCODING 380
SWIDTH 728 0
DWIDTH 20 0
BBX 16 23 2 0
BITMAP
0180
0180
0000
0000
FFFF
FFFF
0006
000C
0018
0030
0060
00E0
01C0
0180
0300
0600
0C00
1800
3800
7000
6000
FFFF
FFFF
ENDCHAR
STARTCHAR Zcaron
ENCODING 381
SWIDTH 728 0
DWIDTH 20 0
BBX 16 24 2 0
BITMAP
180C
0E38
03E0
0080
0000
FFFF
FFFF
0006
000C
0018
0030
0060
00E0
01C0
0180
0300
0600
0C00
1800
3800
7000
6000
FFFF
FFFF
ENDCHAR
STARTCHAR zcaron
ENCODING 382
SWIDTH 728 0
DWIDTH 20 0
BBX 16 24 2 0
BITMAP
180C
0E38
03E0
0080
0000
FFFF
FFFF
0006
000C
0018
0030
0060
00E0
01C0
0180
0300
0600
0C00
1800
3800
7000
6000
FFFF
FFFF
ENDCHAR
STARTCHAR florin
ENCODING 402
SWIDTH 835 0
DWIDTH 23 0
BBX 22 20 1 -1
BITMAP
0001F8
0003FC
000704
000E00
000C00
000C00
001800
01FFC0
01FFC0
001800
003000
003000
003000
006000
006000
006000
00C000
81C000
FF8000
7E0000
ENDCHAR
STARTCHAR AEacute
ENCODING 508
SWIDTH 1172 0
DWIDTH 33 0
BBX 31 24 0 0
BITMAP
000000C0
000003C0
00000F00
00001800
00000000
0007FFFE
000FFFFE
001D8000
00398000
00318000
00618000
00E18000
00C18000
0181FFFC
0381FFFC
03018000
06018000
0FFF8000
0FFF8000
18018000
38018000
30018000
6001FFFE
E001FFFE
ENDCHAR
STARTCHAR aeacute
ENCODING 509
SWIDTH 1551 0
DWIDTH 43 0
BBX 40 24 2 0
BITMAP
0000008000
000003C000
00000E0000
0000180000
0000000000
07FE007F80
3FFF81FFF0
3001E38078
00006E001C
00003C000E
0000380006
0000300003
000FF00003
03FFFFFFFF
1FF03FFFFF
3C00300000
7000300000
C000380000
C000180000
C0003C0000
E000FE0000
7807C7C00C
3FFF01FFFC
0FF8007FF0
ENDCHAR
STARTCHAR Oslashacute
ENCODING 510
SWIDTH 983 0
DWIDTH 28 0
BBX 24 26 2 -2
BITMAP
000080
000780
001E00
003018
000030
00FF20
07FFE0
1F00F8
3800DC
70018E
600306
E00607
C00403
C00C03
C01803
C03003
C02003
E06007
60C006
71800E
39001C
1F00F8
07FFE0
05FF80
0C0000
180000
ENDCHAR
STARTCHAR oslashacute
ENCODING 511
SWIDTH 983 0
DWIDTH 28 0
BBX 24 26 2 -2
BITMAP
000080
000780
001E00
003018
000030
00FF20
07FFE0
1F00F8
3800DC
70018E
600306
E00607
C00403
C00C03
C01803
C03003
C02003
E06007
60C006
71800E
39001C
1F00F8
07FFE0
05FF80
0C0000
180000
ENDCHAR
STARTCHAR dotlessj
ENCODING 567
SWIDTH 590 0
DWIDTH 17 0
BBX 13 19 0 0
BITMAP
0018
0018
0018
0018
0018
0018
0018
0018
0018
0018
0018
0018
0018
0018
0018
0030
C0F0
FFE0
3F80
ENDCHAR
STARTCHAR circumflex
ENCODING 710
SWIDTH 527 0
DWIDTH 15 0
BBX 11 4 2 15
BITMAP
0400
1F00
71C0
C060
ENDCHAR
STARTCHAR caron
ENCODING 711
SWIDTH 527 0
DWIDTH 15 0
BBX 11 4 2 15
BITMAP
C060
71C0
1F00
0400
ENDCHAR
STARTCHAR breve
ENCODING 728
SWIDTH 527 0
DWIDTH 15 0
BBX 9 3 3 16
BITMAP
C180
6300
3E00
ENDCHAR
STARTCHAR dotaccent
ENCODING 729
SWIDTH 527 0
DWIDTH 15 0
BBX 2 2 6 16
BITMAP
C0
C0
ENDCHAR
STARTCHAR ring
ENCODING 730
SWIDTH 527 0
DWIDTH 15 0
BBX 7 5 4 15
BITMAP
7C
C6
C6
C6
7C
ENDCHAR
STARTCHAR ogonek
ENCODING 731
SWIDTH 527 0
DWIDTH 15 0
BBX 6 5 4 -5
BITMAP
30
60
C0
C4
78
ENDCHAR
STARTCHAR tilde
ENCODING 732
SWIDTH 527 0
DWIDTH 15 0
BBX 10 3 3 16
BITMAP
7040
8C40
8380
ENDCHAR
STARTCHAR hungarumlaut
ENCODING 733
SWIDTH 527 0
DWIDTH 15 0
BBX 10 4 4 15
BITMAP
1080
39C0
6300
C600
ENDCHAR
STARTCHAR commaaccent
ENCODING 806
SWIDTH 527 0
DWIDTH 15 0
BBX 3 4 6 -6
BITMAP
60
E0
C0
C0
ENDCHAR
STARTCHAR mu
ENCODING 956
SWIDTH 705 0
DWIDTH 20 0
BBX 17 19 1 -6
BITMAP
0C0180
0C0180
080380
180300
180300
180300
180300
100700
300600
380E00
3C3E00
37F600
33C300
600000
600000
600000
600000
600000
C00000
ENDCHAR
STARTCHAR Wgrave
ENCODING 7808
SWIDTH 1266 0
DWIDTH 35 0
BBX 33 24 1 0
BITMAP
0004000000
000F000000
0001C00000
0000600000
0000000000
C001C00180
C001C00180
6003600300
6003600300
6002200300
3006300600
3006300600
180C180C00
180C180C00
180C080C00
0C180C1800
0C180C1800
0430063000
0630063000
0630063000
0360036000
0360036000
0140014000
01C001C000
ENDCHAR
STARTCHAR wgrave
ENCODING 7809
SWIDTH 1266 0
DWIDTH 35 0
BBX 33 24 1 0
BITMAP
0004000000
000F000000
0001C00000
0000600000
0000000000
C001C00180
C001C00180
6003600300
6003600300
6002200300
3006300600
3006300600
180C180C00
180C180C00
180C080C00
0C180C1800
0C180C1800
0430063000
0630063000
0630063000
0360036000
0360036000
0140014000
01C001C000
ENDCHAR
STARTCHAR Wacute
ENCODING 7810
SWIDTH 1266 0
DWIDTH 35 0
BBX 33 24 1 0
BITMAP
00000C0000
00003C0000
0000F00000
0001800000
0000000000
C001C00180
C001C00180
6003600300
6003600300
6002200300
3006300600
3006300600
180C180C00
180C180C00
180C080C00
0C180C1800
0C180C1800
0430063000
0630063000
0630063000
0360036000
0360036000
0140014000
01C001C000
ENDCHAR
STARTCHAR wacute
ENCODING 7811
SWIDTH 1266 0
DWIDTH 35 0
BBX 33 24 1 0
BITMAP
00000C0000
00003C0000
0000F00000
0001800000
0000000000
C001C00180
C001C00180
6003600300
6003600300
6002200300
3006300600
3006300600
180C180C00
180C180C00
180C080C00
0C180C1800
0C180C1800
0430063000
0630063000
0630063000
0360036000
0360036000
0140014000
01C001C000
ENDCHAR
STARTCHAR Wdieresis
ENCODING 7812
SWIDTH 1266 0
DWIDTH 35 0
BBX 33 23 1 0
BITMAP
0006180000
0006180000
0000000000
0000000000
C001C00180
C001C00180
6003600300
6003600300
6002200300
3006300600
3006300600
180C180C00
180C180C00
180C080C00
0C180C1800
0C180C1800
0430063000
0630063000
0630063000
0360036000
0360036000
0140014000
01C001C000
ENDCHAR
STARTCHAR wdieresis
ENCODING 7813
SWIDTH 1266 0
DWIDTH 35 0
BBX 33 23 1 0
BITMAP
0006180000
0006180000
0000000000
0000000000
C001C00180
C001C00180
6003600300
6003600300
6002200300
3006300600
3006300600
180C180C00
180C180C00
180C080C00
0C180C1800
0C180C1800
0430063000
0630063000
0630063000
0360036000
0360036000
0140014000
01C001C000
ENDCHAR
STARTCHAR Ygrave
ENCODING 7922
SWIDTH 763 0
DWIDTH 21 0
BBX 20 24 1 0
BITMAP
020000
078000
00E000
003000
000000
E00070
7000E0
3801C0
180180
0C0300
060600
070E00
039C00
019800
00F000
006000
006000
006000
006000
006000
006000
006000
006000
006000
ENDCHAR
STARTCHAR ygrave
ENCODING 7923
SWIDTH 911 0
DWIDTH 26 0
BBX 20 24 2 0
BITMAP
030000
03C000
007000
001800
000000
C00030
C00030
C00030
C00030
C00030
C00030
C00030
E00070
6000F0
7003B0
3C0F30
1FFC30
07F030
000030
000060
0001E0
C007C0
FFFF00
3FF800
ENDCHAR
STARTCHAR endash
ENCODING 8211
SWIDTH 419 0
DWIDTH 12 0
BBX 11 2 1 9
BITMAP
FFE0
FFE0
ENDCHAR
STARTCHAR emdash
ENCODING 8212
SWIDTH 1000 0
DWIDTH 28 0
BBX 28 2 0 9
BITMAP
FFFFFFF0
FFFFFFF0
ENDCHAR
STARTCHAR quoteleft
ENCODING 8216
SWIDTH 163 0
DWIDTH 5 0
BBX 3 5 1 14
BITMAP
60
60
60
C0
C0
ENDCHAR
STARTCHAR quoteright
ENCODING 8217
SWIDTH 163 0
DWIDTH 5 0
BBX 3 5 1 14
BITMAP
60
60
C0
C0
C0
ENDCHAR
STARTCHAR quotesinglbase
ENCODING 8218
SWIDTH 163 0
DWIDTH 5 0
BBX 3 5 1 -3
BITMAP
60
60
C0
C0
C0
ENDCHAR
STARTCHAR quotedblleft
ENCODING 8220
SWIDTH 303 0
DWIDTH 8 0
BBX 7 5 1 14
BITMAP
66
66
66
CC
CC
ENDCHAR
STARTCHAR quotedblright
ENCODING 8221
SWIDTH 303 0
DWIDTH 8 0
BBX 7 5 1 14
BITMAP
66
66
CC
CC
CC
ENDCHAR
STARTCHAR quotedblbase
ENCODING 8222
SWIDTH 303 0
DWIDTH 8 0
BBX 7 5 1 -3
BITMAP
66
66
CC
CC
CC
ENDCHAR
STARTCHAR dagger
ENCODING 8224
SWIDTH 500 0
DWIDTH 14 0
BBX 10 19 2 0
BITMAP
0C00
0C00
0C00
0C00
0C00
FFC0
FFC0
0C00
0C00
0C00
0C00
0C00
0C00
0C00
0C00
0C00
0C00
0C00
0C00
ENDCHAR
STARTCHAR daggerdbl
ENCODING 8225
SWIDTH 500 0
DWIDTH 14 0
BBX 10 19 2 0
BITMAP
0C00
0C00
0C00
0C00
0C00
FFC0
FFC0
0C00
0C00
0C00
0C00
FFC0
FFC0
0C00
0C00
0C00
0C00
0C00
0C00
ENDCHAR
STARTCHAR bullet
ENCODING 8226
SWIDTH 352 0
DWIDTH 10 0
BBX 5 5 2 7
BITMAP
70
F8
F8
F8
70
ENDCHAR
STARTCHAR ellipsis
ENCODING 8230
SWIDTH 555 0
DWIDTH 16 0
BBX 12 3 1 0
BITMAP
C630
C630
C630
ENDCHAR
STARTCHAR perthousand
ENCODING 8240
SWIDTH 1401 0
DWIDTH 39 0
BBX 37 19 1 0
BITMAP
1F00300000
71C0600000
60C0C00000
C061800000
C061800000
C063000000
C066000000
60CC000000
318C000000
1F18F807C0
00338E1C70
0033061830
0066033018
00C6033018
0186033018
0186033018
0303061830
06038C1C60
0C00F807C0
ENDCHAR
STARTCHAR guilsinglleft
ENCODING 8249
SWIDTH 257 0
DWIDTH 7 0
BBX 5 11 1 4
BITMAP
10
18
30
60
E0
C0
E0
60
30
18
10
ENDCHAR
STARTCHAR guilsinglright
ENCODING 8250
SWIDTH 257 0
DWIDTH 7 0
BBX 5 11 1 4
BITMAP
40
C0
60
30
38
18
38
30
60
C0
40
ENDCHAR
STARTCHAR fraction
ENCODING 8260
SWIDTH 200 0
DWIDTH 6 0
BBX 17 19 -6 0
BITMAP
000180
000300
000600
000C00
001800
001800
003000
006000
00C000
01C000
018000
030000
060000
0C0000
0C0000
180000
300000
600000
C00000
ENDCHAR
STARTCHAR Euro
ENCODING 8364
SWIDTH 833 0
DWIDTH 23 0
BBX 21 19 0 0
BITMAP
003F80
01FFF0
03C038
070008
0E0000
0C0000
1C0000
FFFF80
FFFF80
180000
180000
FFFE00
FFFE00
180000
0C0000
060008
07C038
01FFF0
003F80
ENDCHAR
STARTCHAR trademark
ENCODING 8482
SWIDTH 773 0
DWIDTH 22 0
BBX 18 8 1 11
BITMAP
FEC0C0
10C0C0
10A140
10A140
109240
109240
108C40
108C40
ENDCHAR
STARTCHAR partialdiff
ENCODING 8706
SWIDTH 790 0
DWIDTH 22 0
BBX 19 19 2 0
BITMAP
01FC00
07FF00
060780
0001C0
0000C0
000060
000060
07F860
1FFE60
3C0760
7001E0
E000E0
C000C0
C000C0
C00180
E00380
780F00
3FFC00
0FF000
ENDCHAR
STARTCHAR minus
ENCODING 8722
SWIDTH 634 0
DWIDTH 18 0
BBX 13 2 2 9
BITMAP
FFF8
FFF8
ENDCHAR
STARTCHAR uni2215
ENCODING 8725
SWIDTH 200 0
DWIDTH 6 0
BBX 17 19 -6 0
BITMAP
000180
000300
000600
000C00
001800
001800
003000
006000
00C000
01C000
018000
030000
060000
0C0000
0C0000
180000
300000
600000
C00000
ENDCHAR
STARTCHAR approxequal
ENCODING 8776
SWIDTH 634 0
DWIDTH 18 0
BBX 14 8 2 6
BITMAP
7E04
FFFC
81F8
0000
0000
7E04
FFFC
81F8
ENDCHAR
STARTCHAR notequal
ENCODING 8800
SWIDTH 634 0
DWIDTH 18 0
BBX 13 15 2 2
BITMAP
00C0
0180
0180
0180
FFF8
FFF8
0300
0700
0600
FFF8
FFF8
0C00
0C00
0C00
1800
ENDCHAR
STARTCHAR lessequal
ENCODING 8804
SWIDTH 634 0
DWIDTH 18 0
BBX 13 14 2 1
BITMAP
0008
0078
03E0
0F00
7800
C000
7800
0F00
01E0
0078
0008
0000
FFF8
FFF8
ENDCHAR
STARTCHAR greaterequal
ENCODING 8805
SWIDTH 634 0
DWIDTH 18 0
BBX 13 14 2 1
BITMAP
8000
F000
3C00
0780
00F0
0018
00F0
0780
3E00
F000
8000
0000
FFF8
FFF8
ENDCHAR
STARTCHAR fi
ENCODING 64257
SWIDTH 1104 0
DWIDTH 31 0
BBX 25 19 3 0
BITMAP
07FFC180
3FFFC180
78000180
60000180
E0000180
C0000180
C0000180
C0000180
C0000180
FFFFC180
FFFFC180
C0000180
C0000180
C0000180
C0000180
C0000180
C0000180
C0000180
C0000180
ENDCHAR
STARTCHAR fl
ENCODING 64258
SWIDTH 1527 0
DWIDTH 43 0
BBX 39 19 3 0
BITMAP
07FFC18000
3FFFC18000
7800018000
6000018000
E000018000
C000018000
C000018000
C000018000
C000018000
FFFFC18000
FFFFC18000
C000018000
C000018000
C000018000
C000018000
C00001C000
C00000E000
C00000FFFE
C000003FFE
ENDCHAR
STARTCHAR .notdef
ENCODING -1
SWIDTH 1000 0
DWIDTH 28 0
BBX 1 1 0 0
BITMAP
00
ENDCHAR
ENDFONT
